<?xml version="1.0" encoding="UTF-8"?>
<svg width="48px" height="38px" viewBox="0 0 48 38" version="1.1" xmlns="http://www.w3.org/2000/svg" xmlns:xlink="http://www.w3.org/1999/xlink">
    <!-- Generator: Sketch 52.4 (67378) - http://www.bohemiancoding.com/sketch -->
    <title>icon-mail</title>
    <desc>Created with Sketch.</desc>
    <g id="Page-1" stroke="none" stroke-width="1" fill="none" fill-rule="evenodd">
        <g id="home" transform="translate(-624.000000, -2575.000000)" fill="#FFFFFF" fill-rule="nonzero">
            <g id="icon-mail" transform="translate(624.000000, 2575.000000)">
                <path d="M23.9987981,16.6676647 L43.2670639,4.77844311 L4.73293605,4.77844311 L23.9987981,16.6676647 Z M43.2670639,33.2215569 L43.2670639,9.55688623 L23.9987981,21.3347056 L4.73053233,9.55688623 L4.73053233,33.2215569 L43.2646602,33.2215569 L43.2670639,33.2215569 Z M43.2670639,0 C45.8582803,0 48,2.22330339 48,4.77844311 L48,33.2215569 C48,35.7766966 45.8582803,38 43.2670639,38 L4.73293605,38 C2.14171967,38 0,35.7766966 0,33.2215569 L0,4.77844311 C0,2.22330339 2.14171967,0 4.73293605,0 L43.2670639,0 Z" id="Shape"></path>
            </g>
        </g>
    </g>
</svg>