<?xml version="1.0" encoding="UTF-8"?>
<svg width="581px" height="643px" viewBox="0 0 581 643" version="1.1" xmlns="http://www.w3.org/2000/svg" xmlns:xlink="http://www.w3.org/1999/xlink">
    <!-- Generator: Sketch 52.4 (67378) - http://www.bohemiancoding.com/sketch -->
    <title>j2p-hexagon-primary</title>
    <desc>Created with Sketch.</desc>
    <g id="Page-1" stroke="none" stroke-width="1" fill="none" fill-rule="evenodd">
        <g id="home" transform="translate(-358.000000, -2505.000000)" fill="#8CE1D2">
            <path d="M648.501576,3148 C632.356996,3148 616.21872,3143.83865 601.8172,3135.51279 L404.681224,3021.50183 C375.88764,3004.85011 358,2973.81677 358,2940.51017 L358,2712.48826 C358,2679.18796 375.88764,2648.15147 404.681224,2631.49659 L601.8172,2517.48879 C630.613936,2500.83707 666.386064,2500.83707 695.1828,2517.48879 L892.321928,2631.49659 C921.115512,2648.15147 939,2679.18796 939,2712.48826 L939,2940.51017 C939,2973.81677 921.115512,3004.85011 892.321928,3021.50183 L695.1828,3135.51279 C680.784432,3143.83865 664.643004,3148 648.501576,3148" id="j2p-hexagon-primary"></path>
        </g>
    </g>
</svg>