<svg id="Layer_1" data-name="Layer 1" xmlns="http://www.w3.org/2000/svg" xmlns:xlink="http://www.w3.org/1999/xlink" viewBox="0 0 1028.63407 205.441"><defs><style>.cls-1{fill:none;}.cls-2{fill:#606060;}.cls-3{fill:#8ce1d2;}.cls-4{fill:#baede4;}.cls-5{fill:#fff;}.cls-6{clip-path:url(#clip-path);}</style><clipPath id="clip-path"><path class="cls-1" d="M160.42785,136.46834v-67.496A15.88569,15.88569,0,0,0,152.485,55.215L94.03179,21.467a15.88567,15.88567,0,0,0-15.88569,0L19.69289,55.215a15.88568,15.88568,0,0,0-7.94284,13.75741v67.496a15.88569,15.88569,0,0,0,7.94284,13.75741l58.45321,33.748a15.88572,15.88572,0,0,0,15.88569,0l58.45321-33.748A15.8857,15.8857,0,0,0,160.42785,136.46834Z"/></clipPath></defs><title>j2p-logo</title><path class="cls-2" d="M237.679,124.067a2.18964,2.18964,0,0,1-1.38477.75586l.377.125c1.00781-.37695,1.51172-.50293,1.51172-1.63574l-.63086-.126a.9618.9618,0,0,1,.5039-.252c.127-.62988,1.00782-1.25879,1.76368-2.01465,0,.126,0,0,.125,0,.88085-.50293,2.51757-1.63574,3.02148-1.63574.62891-.37793,1.25781,1.25879,1.25781-.37793.127-.37793.75586-.62989,2.01563-.62989-.127-.37695-.252-.88085-.127-1.00683l1.51172-.88086,1.25782-.62988c.252-.126.6289-.377,1.00781-.126.6289-.37695,1.25781-1.25879,2.13867-1.00684a.61865.61865,0,0,1,.12695-.37793l.75586-.377a4.29092,4.29092,0,0,1,3.02149-1.25879c-.127-.252.7539-.37793,1.13281-.37793,0,.126.125.37793.75391-.126,1.38476-1.25879,1.76367-.75489,2.26562-.50391l1.88867-1.00684c-.125-.126,0-.37793.50391-.6289a2.17612,2.17612,0,0,1,1.25976-.126l1.00586.126a1.66346,1.66346,0,0,1,1.25977-.88184l4.02734-1.13281,1.38477-.25195,1.25976.126c.50391,0,.62891.126.50391,0l1.38477-1.88769v-.62989a4.81766,4.81766,0,0,1,1.38476-.75488l-.12695-.62988c.12695-.252,0-.50391,0-.75488a1.67163,1.67163,0,0,0,.37695-.88184c.37891-.126,0-.50293.88281-.88086a9.40341,9.40341,0,0,0,.252-1.51074l1.25781-1.7627a6.38564,6.38564,0,0,0,1.13281-3.14648.78365.78365,0,0,1,.37891-.62988,17.33817,17.33817,0,0,0,1.25781-2.76954,1.88642,1.88642,0,0,1,.88086-1.63671c-.125-.62891-.125-1.25879.37891-1.38379.25.125.25,0,.125-.62989,0-.126.6289-.62988.5039-1.13281a10.78518,10.78518,0,0,1,.125-2.14062c.63086-1.25879.63086-2.3916,1.25977-3.39844a3.48469,3.48469,0,0,0,.125-1.63672c0-.75488-.252-1.38477.12695-1.88769v.251a40.54438,40.54438,0,0,1,.75391-5.79c.127-2.01465,0-4.15429.127-6.16894l-.127-2.13965c-.377-.37793-.377-.37793-1.00586-.50391-.127,0,0-.126-.127.62989l-1.38477-.37793a5.00236,5.00236,0,0,0-1.38477,0,4.45829,4.45829,0,0,1-.7539-.126,2.44807,2.44807,0,0,1-3.02149.252,4.0117,4.0117,0,0,1-2.26562.252c-.127-.126-.50391-.126-1.38477-.126a1.06179,1.06179,0,0,1-.88086.252c-.5039.252-.5039.62891-.88281.62891a7.57279,7.57279,0,0,1-3.65039-.50293c-.125,0-.125,0-.125.126a1.3568,1.3568,0,0,1-1.00781,0c-.125.251-.62891.251-.62891.50292l-1.25976.126c-.377.50391-1.38477-.5039-2.13868.252l-.3789.62891c-.125-.126-.252.252-.88086.252-.377.126-1.13281-.126-1.50977,0a3.69885,3.69885,0,0,0-2.01562.50391l-1.76172.62891v-.377h-.62891l-.5039-.126c-.125.126-.50391.25195-.62891.126l-1.13281.251c0,.50391-.37891.25195-1.13281.37793-1.76368-.75488-1.51172-.252-2.14063,0a4.30237,4.30237,0,0,0-1.38477.126,11.463,11.463,0,0,1-1.13281.62988l-1.38476.37695c-.75586.126-1.00782-.126-1.63672.62988-.75586-.62988-1.13281-.25195-1.51172-.126l-.88086-.252-.62891-.126q0,.5669-1.13281.75586l-.25195.126c-.62891.126-1.25781.50293-1.88867.62891h-.88086c-.377,0-.377.50391-1.00782.37793l-.377.25195c-.125.251-.37695.62891-1.38476.62891-.125,0-.88086.126-.88086.126a2.83474,2.83474,0,0,1-.50391.126c-.252.50391-.50391,0-1.76172,1.13282a6.1332,6.1332,0,0,1-1.51172-.126c-.37695,0,0,0-.50195.126l-1.88867.88085a5.33159,5.33159,0,0,0-1.13282.252l-.25195-.126c-1.25976,1.00781-2.26562,1.7627-4.1543,1.51074-.75585,0-1.51171-.37695-.88085.75586-.88282.126-1.00782.377-1.25977.252-.125.125-.252.125-.88086.251l-1.51172,1.00782c-.50195,0-.6289.377-.88086.50292h-.25195c-.37695.126-1.00586.62989-1.13281.62989L214.013,80.00741l-.75585.75488c-.50391-.126-.50391-.126-.88086.75586a1.584,1.584,0,0,1-2.01563.252l-1.13281-1.38477c-1.13281-1.00781-1.13281-2.2666-.25-2.89551a3.53194,3.53194,0,0,1,2.64258-2.64355,6.5175,6.5175,0,0,0,2.39257-1.51074l1.00586-.126.37891-.25195a2.03826,2.03826,0,0,1,.75391-.37793l1.13281.37793c-.25-.37793,0-.75489.63086-.75489l.50195-.126c.75586-.62989,1.25977-1.13282,2.14063-.75586-.125-.126-.125-.126.127-.126.125-.50293.88086-.50293,1.38477-.50293.502-1.38477,5.16015-2.01465,6.293-1.88867,0-1.25879,2.14063-1.76172,3.02149-1.25879.25195-.88086,1.00781-.62891,1.51172-.75488l.125-.126,1.25976-.62988c.75391,0,1.38477-.75489,1.50977.62988l1.25976-.37793a.12273.12273,0,0,1,.125-.126v.126l.88086-.37793c-.25195-.126-.125-.126-.25195-.50293,0-.37793.88086-.37793,1.13281-.50391.127-.126.50391.126.75586.126.50391-.126.62891-.6289,1.25977-.37793.25195,0,.7539-.251.7539-.50293l2.26563.126c0-.75586.88281-.75586,1.38476-.75586l1.63672-.126a2.34008,2.34008,0,0,1,.88282.252c.6289.62988,1.38476-1.25879,2.13867-1.51075.5039.252.5039.252.88086,0a2.54033,2.54033,0,0,1,1.63672.126c.12695.126.12695.37793.5039.37793l.127-.75586c.125,0,.125-.125.125-.377a3.6369,3.6369,0,0,1,1.38476.50293c0-.377.50391-.88086,3.14649-.126v-.125c.75585-.75586,1.38476-.75586,1.51171-.50391.252.62891,1.13282.126,1.38477,0l1.13281-.252c2.14063-1.00683,2.76953-1.00683,2.89453-1.38476l2.39258-.252c.125.126.62891.126,1.50977.126.127.50391.3789.62988.63086.62988v-.62988l.125.126c.37695-.50391,1.00781-.252,1.38476.37793h.62891v-.50391l1.25976-.37793a1.88815,1.88815,0,0,0,1.25782-.251l.75586.62891,1.38476-1.00684c.377,0,.50391.252.62891.126.127-.252.3789-.126.5039-.126a3.53988,3.53988,0,0,1,1.38477.126c.377.126.127.75488.127,1.25879.62891,0,.75391-.50391,1.13282-1.00684v-.5039c-.252,0,.125-.126.502-.126a16.38493,16.38493,0,0,1,3.40039.126,4.457,4.457,0,0,1,2.01367.88086V58.733a.87964.87964,0,0,1,.50391-.252,5.63586,5.63586,0,0,1,1.50976.126c.127,0,.127.126.37891,1.00684h1.00586c.6289.126.12695.5039,1.00781,0V58.733a2.68546,2.68546,0,0,1,.75391.126c.63086,0,.88281.377,1.51172.50293a3.53928,3.53928,0,0,1,2.76953.62989c.125.126,0-.126.5039,0,.377-.37793,1.13282-.252,1.63672,0a8.795,8.795,0,0,1,3.77539,1.76269,3.94919,3.94919,0,0,1,2.14063,1.76172l2.89453,2.14062a13.89261,13.89261,0,0,1,2.01562,5.79l.125,2.64356-.37695.62988c-.63086.62891.37695,2.13965-1.13281,2.76953,0,.126-.252.252-.50391.75488,0,1.25879-2.64453,1.25879-2.01367-.75488-.127-.5039.502-1.51074.502-1.88867-.125-.25195.127-.62891.252-.88086a2.32216,2.32216,0,0,0,.63086-1.76269,4.95608,4.95608,0,0,0-.37891-4.1543c-.125-.62891-1.25781-1.13281-1.63672-1.51074-.252,0-.50391-.251-.88086-.88086-.25195,0-.25195,0-.6289-.37793a6.05883,6.05883,0,0,0-1.38477-.62891c-.12695,0-.25195-.37793-.62891-.37793h-.3789c-.88086-.37793-1.50977-.37793-1.88867-1.00683a.54762.54762,0,0,0-.377-.126,2.1657,2.1657,0,0,0-.88086-.126,4.63911,4.63911,0,0,1-1.88867-.126c-.125,0-.62891.126-.88086.126H292.3118c-.6289,0-1.63476,0-1.88672-.252-.12695,0,0,.126-.5039,0-.127.37793-.88086.50391-.88086.37793-.63086-.37793-1.13281-.50391-.88086-.126-.127.126,0,.126.62891.88086l.252.88184h.25195c.252.37695,1.13281,1.13281,1.00586,2.13965-.377,0-.377.126,0,.88086a3.22625,3.22625,0,0,1-.377,2.2666v.88086c0,.252.5039,1.00683.377,1.13281l-.50391,2.14062c.127.62891,0,.75489-.25,1.00684l-.127,3.65039a5.25038,5.25038,0,0,0-.125,1.25879c0,.126-.25195.126-.25195.25195s-.37891.37793-.37891.75489c0,0-.6289,3.90332-.6289,4.02929-.125.251-.125.62891-.252.75489-.377.126-.377.126-.252.37792a1.65705,1.65705,0,0,1-.37695,1.25879c0,.88086-.252,1.8877-.252,2.89551-1.25976.37695-.5039,1.38477-.88086,2.3916l-.88086.50293c.377.75586.252.88184-.5039,1.38477.125.252,0,.62988-.37891,1.13379-.25.125-.25.50293-.25.6289.125.62989-.3789,1.38477-.63086,2.01465v-.126c.127-.37793-.125-.252-.5039-.252a.54915.54915,0,0,0,.3789.50293c.125.88184.252,1.38477-.75586,1.13379h-.252a1.37758,1.37758,0,0,1-.125.62891l.377.126a10.0441,10.0441,0,0,1-.6289,1.38477h-.252c-.25195.50391.62891,1.38477-.6289,1.00684.252.37793.125.37793-.127.5039a2.74049,2.74049,0,0,0-1.00585,2.13965l-.37891.126.12695.25195.50391.62988c.37695-.37793.50195-.37793.50195-.37793a.80314.80314,0,0,1,.75586,0s0-.126.25195-.126a1.67526,1.67526,0,0,1,1.00782.37793,6.89692,6.89692,0,0,1,2.13867-.62989l2.26562,1.00684a3.99661,3.99661,0,0,1,1.63672.25195l.50391.252h1.00781l1.63672.252c.502-.126.88086.37793,1.25781.50293.127-.251,1.38477.75586,1.25977.75586.5039.6289,1.63672,1.88769,1.50976,1.38476l.75586.126c.50391.62891,3.90235,1.8877,3.65039,3.27246-.125-.126-4.15429-1.38476-4.53125-1.51074-.252-.251-.252-.50293-.63086-.50293-1.38476-.62988-2.64257-.62988-4.27929-1.25879h-1.38477l-5.53906-.50391h-2.01367l-1.00782.37793c-.88085,0-1.13281-.126-1.63671-.126l-.75391-.126c-.88281-.37793-1.25977.126-2.14063,1.00684-.127.126,0,.252-.252.5039.125,1.00684.125,1.13282,0,1.25879-.125.62891-.37695,1.00684-1.50976.50391,0,0-.127,0-.127.251a4.00846,4.00846,0,0,1,.88086.126c.127.62988-.88086,1.51074-1.38476,1.25879.63086.62988.63086,1.7627-.75391.88184a7.91934,7.91934,0,0,1-1.00781,1.88769h.125c.75586.75586.5039.75586-.62891,1.51074-1.38476-.126-1.63672,1.13282-2.39062,2.01465l.125.126c.25195.377.88086.50293-.377,1.13281a.62581.62581,0,0,0-.3789.126l-.62891.88086a9.99116,9.99116,0,0,0-1.88867,3.14746c-.62891.251-1.13281.88086-1.63672.88086-.252,0-.252-.126-.252,0,.252.126.63086,1.00683.63086,1.00683l.125.252-1.00586,1.38476c-1.63672-2.26562.377,2.51758-2.39258,1.25879l-.127.37793c.88281,1.00684.5039,1.13281-1.13282.75488,0,0-.252,0-.502.50391-.252.126-.252.25195-.37891.62891-.125.75586-.6289,1.13379-1.25781,1.00781l-1.00781,1.00683s-.125,0,.12695.126a1.49951,1.49951,0,0,1,.502,1.38477l-1.00586.252c-.63086.62891-.88086.62891-1.00782.251-.5039,0-1.13281.5039-1.13281.75586a6.82632,6.82632,0,0,0,.125,1.38476,5.60123,5.60123,0,0,0-2.76953,1.25879l-1.13281.50391L249.261,143.4537l.75391.37695-1.25781,1.25879-.88086-.251-.37891.62891h-.50391c-.37695.37793-.88086.88086-1.38476.88086-.377,0-.502,0-.62891.126a.659.659,0,0,1-.88086.62988l-.5039.75488c-.125.252-.125.252-.125.37793l-1.13282.88086-.63086.62988c-.125.37793-.502.50391-1.00586.50391-.25195.75488-1.25976,1.00684-1.88867,1.00684l-.37695.50293-1.63672,1.00781v.252c-.12695.62891-.37891.62891-.88281.62891a5.23348,5.23348,0,0,0-1.50977.5039c-.25195,0-.37695,0-.5039.251a4.59377,4.59377,0,0,0-.88086.37793c-.252,0-1.13282-.126-1.25782-.126l-.12695.62989h-.25195c.25195.37793-.50391.75488-.75586.75488-.37695-.50293-1.00586.126-1.76172.37793H226.097c-.75586.126-1.76172.62988-2.51758.25195a6.22,6.22,0,0,1-2.51758-1.51074,3.17106,3.17106,0,0,1-2.26562-2.26562h.125a2.54339,2.54339,0,0,1-.88086-2.01465c.12695,0,0-.62891-.125-.75489a.46054.46054,0,0,0-.127-.37793,9.16413,9.16413,0,0,1,.5039-4.90918c0-2.39257,1.63672-4.40625,2.76953-6.79785a10.46209,10.46209,0,0,1,1.38477-1.88867l2.39258-2.13965,1.88672-2.2666a3.816,3.816,0,0,0,1.00781-1.00683l.5039-.50391,1.38477-1.00684.62891-.88086a2.53876,2.53876,0,0,1,1.00781-.5039c.125-.126.5039-.62891,1.00586-.62891l2.26562-2.51758c.50391-.37793.75586-.88183,1.25977-.252l-.125-.75586,1.76172-.62891.125.126-.252.25195A.8615.8615,0,0,0,237.679,124.067Zm8.18164,16.49121c1.38477.126,1.38477.126.37891-.5039a12.599,12.599,0,0,1,2.51758-2.01368.24676.24676,0,0,0,.252-.25195c.25195-.37793.88086-.75586,1.38476-1.38477l5.78907-5.2871.75586-.62989,1.88867-1.88769c-.127-.126,0-.62989.6289-.62989l.252-.75488.88086-.75586.5039-.6289,1.00782-.50391-.127-.126c0-.37695.50391-.75488.50391-.75488h-.252l.252-.25195c1.13281-1.38477,1.76172-2.76953,2.76953-4.02832.252-1.00684,1.38477-1.88868,1.38477-2.3916.125.252,1.50976-1.88868,1.63671-1.88868,0-.252.252-.37793.62891-.75488.127-.252.37891-.50391.37891-.75586l1.00586-2.3916-1.00586.62988c-.37891.50293-.63086.50293-1.25977.62891h-1.25976l-1.38282.62988a20.99212,20.99212,0,0,0-3.02148.50293l-.37891.75586h-.6289c-.377.25195-.50391,0-.50391.25195a1.0724,1.0724,0,0,1-1.50977.62891c-.5039,0-.75586.126-1.13281,0,0,0,0,.126-.3789.37793a5.00851,5.00851,0,0,1-2.01368.75488c-.25195,0-.6289.50391-1.25781.75586-.50391,0-1.00781.126-1.00781.37695l-1.25977,1.13379a11.2146,11.2146,0,0,0-5.03515,2.51758l-1.00586.62891c.125-.252-1.00782.5039-1.13282.75586a4.14746,4.14746,0,0,1-2.89648,1.25879c0,.126-.125.37695-.75586.37695,0,1.25977-2.01367,1.88867-3.27148,2.64355a7.27538,7.27538,0,0,1-2.51758,2.26661l-1.00781.75488-.127-.126v.50391c-.37695.75488-1.25781.88086-1.63476,1.00683l-.63086.50391c-.252.37793-1.88672,1.51074-2.76953,2.3916l.3789.252-.5039.75488a50.23624,50.23624,0,0,0-3.77735,3.65137c0,.75488-.25195,1.88769-.7539,2.13964l-.63086,1.13282a2.71659,2.71659,0,0,0-1.13282,1.88867c-.25195,0-.6289.50293-.6289.75488a1.7468,1.7468,0,0,0,0,1.13281c-.377.126-.62891.252-.62891.62989s-.3789.88086-.25195,1.63672c-.37891,1.13281-.12695,2.26562.62891,3.90234.252-.126.88085.126,1.25976,0a4.31,4.31,0,0,0,2.89453-.50391l4.53125-1.88769a2.39676,2.39676,0,0,0,1.25977-.62989l.75586-.62988c.88086.25195,1.25781-.251,1.88672-.6289l1.51171-1.00684c.50391-.25195,1.76172-.62988,2.14063-1.63672l.75391-.37793c.88086-.62891,2.01562-1.13281,2.39257-2.26562-.127.37793,1.88868-1.38477,2.64258-1.25879ZM229.8743,154.27987l.125-.37793.50391-.37793h-.37695l.37695-.25195-.62891-.251c-.3789-.252-1.00781.377-1.00781.377.12695.37792,0,.37792-.37695.37792-.50391.126-.50391.126-.252-.126-.88086.25195-.88086,0-.88086,0l-.25195.88086c.37695,0,.75391-.251.88086,0a4.26312,4.26312,0,0,1,1.50977-.50293Zm-2.14062-23.541-.252.252.127-.252C227.73368,130.61288,227.73368,130.73886,227.73368,130.73886Zm3.14648,22.78515c.127.126.50391.126.50391.126Zm4.40625-28.07226-.88086.5039c0,.75489-.37695,1.38477,1.00782.62891h.252Zm.62891-.75489a.12308.12308,0,0,1-.125-.126Zm.3789.126-.3789-.126a.12368.12368,0,0,0,.12695.126Zm.50391,23.792,1.00586.88086c-.75391-.25195-.75391.62988-1.00586,1.00684-.25195.37793.252-.251,1.00586-.251l1.38477-1.25879a3.4988,3.4988,0,0,0,1.51171-1.51074.93247.93247,0,0,1,.88086.50293l-.252-.75488-1.38476.25195.5039.50293-1.76367-.126.50391,1.13379c-.62891-.126-.50391,0-.75391,0ZM244.22391,64.901a3.794,3.794,0,0,0-1.76172.252l1.88868.5039c.125-.126.5039-.126.88085-.37793l.62891.252a.86914.86914,0,0,0,.63086-.37793l-.50391-.75488c-.3789.125-1.00781.50292-1.25976-.126Zm.88281,1.00684-.5039-.126-.127.75586c.3789-.25195.3789-.25195.5039-.25195Zm.502,1.25879c-1.88672-.62891-.252.62988-.252.62988Zm3.77734,73.51758.75586.25195v-.126c.502.251.502.126.62891,0l-.75586-1.00781Zm1.50977-76.916.12695,1.00684h.62891l-.125-.88086Zm2.39258,73.26465.252.126c-.252.126-.377.5039-.50391.88183-.25195.377.252.377,0,.377.252.126.252,0,.252-.251,0,0,0-.126.252-.50391v-.5039c1.00781.37793,1.63672.5039,1.13281-.88086.125-.126,0-.50391,0-.50391v.37793a.69173.69173,0,0,0-.50391.75586h-.5039c0-.50391-.125-.62988-.62891-1.13379l-.75586.50391.50391.25195Zm0-71.502c-.377,0-.125.251-.125.6289l.88085.126v-.252l.62891-.252-.88086-.88086v.126Zm.252,49.85058,1.88867-.62988-.75586-.88086c-.125.50293-.62891.377-1.13281.50293a.392.392,0,0,0-.252-.126Zm.88086-51.73925a.86314.86314,0,0,0-1.00781.25195Zm-.88086,71.37695.75586-.25195a3.91782,3.91782,0,0,0-.88281.25195l.3789.252Zm1.00781.50391-.75586-.252s0,.126.37695.252Zm.125.251c.75586.25195.62891-.126.62891-.126C254.79813,135.774,254.67313,135.648,254.67313,135.774Zm1.38477-.75488s-.377-.50391-.75586.252l.63086.126Zm.125-21.65234.5039.37792v-.75585Zm1.76367-49.97657-.88086-.252.25195.88184c.377-.252-.12695.25195,1.00586-.37793l-.37695.126C257.56766,63.64218,257.81962,63.5162,257.94657,63.39022Zm.125-1.38476.25195.37793C259.20438,62.63534,258.57547,62.25741,258.07157,62.00546Zm2.39258.62988a.75741.75741,0,0,1-.50391.126,3.39537,3.39537,0,0,0-1.13281,0l.5039.75488c.252-.126.377-.126,1.63672.37793.125-1.13281.88086-.62988,1.25782-.62988.75585-.126,1.13281-.50293,1.88867-.50293l1.76172-.126,1.88867-.75586H267.261l.63086-.251h-.88281c-.75391.126-1.13281.62891-1.88672.126l-2.01563.50293c-.252.252-.502,0-.6289,0a2.10559,2.10559,0,0,0-1.50977.37793Zm2.14062,66.4668-.5039-.50293c-.50391,1.51074-1.25977,1.76172-2.26563,2.51758.125.6289.88086.25195,1.13281-.50391.125-.37793,1.00586-1.25879,1.50977-1.25879Zm5.28711-9.44141a8.01411,8.01411,0,0,1-.88281-.251s0,.377,1.13281,1.8877l.50391-1.51074Zm3.39844-58.28418-1.25977-.37793c-.7539.37793-1.00586.37793-1.50976,1.00684,1.25781-.251,1.76172.126,2.76953.126Zm-1.76367,57.78125.12695-.37793-.88086-.126.125.37793Zm0-1.38476h-.125l.6289.50292Zm.75586-1.88868-.125.50391c-.252-.37793,0,.50293,0,.50293l.5039.126Zm.3789,1.13282h-.3789C270.78641,117.26913,270.91141,117.14315,270.66141,117.01718Zm.75391-5.28711-.75391-.377c.25.377.125.50293.125.50293Zm1.00781,1.51074h-1.00781v.252c0,.126-.125.37793.75586,1.25879l.5039-.50391-.6289-.6289Zm7.55274-52.62012c-.252-1.13281-1.25782.37793-1.50977.126a4.75586,4.75586,0,0,1-1.51172.126,4.2097,4.2097,0,0,1-1.25781,0c-.75586,0-1.38477-.126-2.01563-.126,0,.37793-1.00586.62988-1.63476.252v1.00684a1.9946,1.9946,0,0,1,1.88672-.126l.5039-.50293s2.39258.126,3.27344.126l.88086-.50391,1.13281.50391c.252-.37793.75586,0,.88086,0a1.7913,1.7913,0,0,1,1.76367-.126c.377,0,.88086,0,.88086-.252h1.25782l-.502-.62989c.125,0,.62891.126,1.38477-.88085l-1.38477-.126c-.5039.126-.5039-.37793-.63086-.37793l-.252,1.00781c.127,0,.252,0,.50391.252a5.11378,5.11378,0,0,1-1.38477,0,1.825,1.825,0,0,1-1.63672,0Zm-2.39258,46.57813c0,.50293,1.25976,1.00683,1.25976,1.00683l-.252-1.13281-.37695-.126Zm4.91015,1.00683-.75586-.75586c-.37695.50391-.6289.37793-.6289.37793l.5039.75586h1.00782Zm3.14649-47.08105c.127-.126.127-.126.127-.37793l-.75586-.252Zm2.39258.75488-.252-1.13281v1.13281Zm1.76171-.62891-.377-.62988c-.125.126-.125.126-.25195.126h-.50391l-.50195.252a.92115.92115,0,0,0,.75391.126Zm4.1543-1.25878a2.20135,2.20135,0,0,1-.7539-.126l-.127,1.00683a.98024.98024,0,0,0,.62891,0Z"/><path class="cls-2" d="M341.03251,115.50643a4.62886,4.62886,0,0,1-.252,1.13379l-.7539.75489a1.18939,1.18939,0,0,1-.37891,1.25878l-.62891,2.01465a2.12645,2.12645,0,0,1-.12695.88086c0,.252-.25.37793-.25.50391a1.355,1.355,0,0,0-.127.6289c0,.126-.125.252-.125.37793l-.63086.62891v1.38477a2.54776,2.54776,0,0,0-.62891,1.76269l-.125-.126a4.79876,4.79876,0,0,1,.125,1.00683c-.125.25195.127.50391.377.75586,0,.25195.127.50293.127.75488l.37695.62989a5.88252,5.88252,0,0,0,2.01563.126l1.50976-.37793c.252,0,.75586-.126,1.13281-.126a5.1339,5.1339,0,0,0,1.38477-.75489,3.71484,3.71484,0,0,1,2.01367-1.51074l1.00781-.88183,1.88868-1.00684,1.50976-1.38477s.37891.75586.62891.50391a11.953,11.953,0,0,1,1.63672-2.14062l1.63672-1.00684c.75586-.88086.75586-1.25879,1.76367-1.8877h.125c0-.5039,1.00781-1.00781,1.50976-1.38476a.90087.90087,0,0,0,.50391-.75586,2.2965,2.2965,0,0,1,.75586-1.00684l1.63672-1.51074c3.90234-3.14746.125.62988-3.02149,5.917l-1.13281,1.50977a11.51532,11.51532,0,0,1-1.76172,1.76269,2.03544,2.03544,0,0,1-.25195.62989l-.88281-.252-1.25782,1.00684a5.85431,5.85431,0,0,1-1.13281,1.25879l-.88086,1.13281c-1.00781.37793-1.38476.75586-1.51172,1.13379a1.77977,1.77977,0,0,1-1.13281.75488,3.75917,3.75917,0,0,0-1.88867.62891c-.125.25195-.377,1.13379-.88086,1.25976-.125,0-.50391.125-.62891.125h-.252c0,.252-.88086.50391-1.25781.50391a7.13356,7.13356,0,0,1-2.26758.37793l-.75391.126a4.44666,4.44666,0,0,1-2.01562-.88184l.25195.25195-.7539-.37793c-1.25977-.6289-2.14063-1.13281-2.39258-1.76171a8.45236,8.45236,0,0,1-1.13282-4.1543c-.127-.37793,0-.62988.377-.88086a1.85928,1.85928,0,0,0,.127-.75586,2.43258,2.43258,0,0,1,.25195-1.88867c0-.251.125-.75488.125-1.00684a.83151.83151,0,0,1,.127-.75488,1.58092,1.58092,0,0,0-.37891.25195l-1.25781,1.13282-.50391.88085-.75586.62989c-.5039.251-.6289.88086-.75586,1.13281l-.7539.88086-.37891.50391-3.02148,2.76953c-.25.6289-2.76953,2.13965-3.27149,2.51758l-.3789.50292s-1.13282.50391-1.38477.62989l-1.63672.75488c-.125.126-.25195.62988-1.25781.50391a2.991,2.991,0,0,1-2.14063-1.25879,1.99725,1.99725,0,0,0-.5039.126c-.252,0-.502-.37793-.62891-.75586L314.722,130.235c0-.125-.125-.251-.25-.75488a5.19935,5.19935,0,0,0,.125-1.38477,7.74108,7.74108,0,0,1,.37695-1.63672l.50391-.6289c.25195-.126.12695-.37793.12695-.62989,0-.6289-.3789-.88086-.25195-1.13281,0-.126.125-.126.125-.37793,0-.251.5039-.50293.6289-.75488l.127.126v-.62988c0-.126.125-.252.125-.50293-.125-.5039.127-.62988.3789-.88183l.75391-1.00684h.127c-.127-.25195.125-.37793.125-.75488l.88282-1.25879a1.26363,1.26363,0,0,1,.125-.50391l1.00781-1.76269a10.18071,10.18071,0,0,1,1.38476-2.13965.23512.23512,0,0,1,0-.37793c-5.16211,2.51758-12.08593,5.917-16.36523.88086l-.12695.126a3.41248,3.41248,0,0,0,.6289.75586v.126l-.377,2.76953-1.88867,5.41309a2.33945,2.33945,0,0,1-1.13281,1.88769c-1.00586.75586-1.13282,1.63672-1.76172,2.76953a2.19445,2.19445,0,0,1-1.38477,1.63672c-.62891.252-1.88867.50391-2.14062,1.00684a3.52431,3.52431,0,0,1-3.52344,1.00683c0-.50292-.37891-.50292-.88281-.75488-1.00586.126-1.88672-.126-1.88672-1.38476a2.39685,2.39685,0,0,1-1.25977-2.26563,8.01948,8.01948,0,0,1-.5039-3.39941,13.958,13.958,0,0,1,1.76367-5.16114c1.50976-3.14746,3.52343-4.53222,5.78906-6.92382,1.51172-1.00684,2.89648-2.39161,4.28125-3.02051.252-.37793.88086,0,1.25781,0,3.90235,5.41211,11.20508,6.168,17.37305,2.01367,3.90234-.75488,6.29492-.88086,7.30078-.252a.436.436,0,0,1,.252.126c.88086.75586.50391,2.14063-.88086,4.53223-.88086,1.38477-1.00781,1.63672-1.00781,1.63672l-.7539,1.13281-.252.50293a2.95669,2.95669,0,0,0-.75586,1.13281.99836.99836,0,0,1-1.00781.62989v.37793l-.75391.50293c0,.25195.125.88183.125,1.13281a6.05766,6.05766,0,0,0-1.13281,1.25976c-.25195.50293-.5039.75489-.25195,1.13282,0,.126-.377.6289-.377.75488a14.19033,14.19033,0,0,1-.75586,2.64355v-.126a1.662,1.662,0,0,1-.377.62988c0,.25195.377,1.38477.125,1.76172l-.377.126c-.50391.5039,1.00586-.377,1.38477-.88086-.37891,0,.377-.37793.88085-.75489.125,0,.252-.126.377-.25195a.84609.84609,0,0,1,.88086-.37793c.252,0,.252.126.252.126,0-.252.37891-.50391.75586-.62989l.75586-.377a1.268,1.268,0,0,1,1.00586-.37793,2.56715,2.56715,0,0,1,.25195-1.13281l1.13281-.88086.252-.50391.75586-.5039,1.13281-.377v-.126a.46512.46512,0,0,0,.125-.37793,2.7946,2.7946,0,0,1,.63086-1.38477l1.63672-1.00683a7.63515,7.63515,0,0,1,1.25781-.88184l.252-.50293a2.24266,2.24266,0,0,1,1.25977-2.01465l1.00586-.6289.75586-.62989a2.72585,2.72585,0,0,1,.88086-.75488,2.29343,2.29343,0,0,0,1.25976-1.38477c3.39844-2.76953,5.03516-2.64355,6.041-.25195l-1.00586,1.00684A1.90079,1.90079,0,0,1,341.03251,115.50643Zm-48.84375,11.20411c.5039-.126,1.88867,1.13281,2.26757.88085.502,0,1.63477-1.50976,1.76172-1.88769,1.38477-1.63672,1.25782-1.38477,2.64258-2.89551,1.25977-1.13281,1.25977-4.7832,2.39258-6.29394a2.07388,2.07388,0,0,1,0-.88184c-.377-.62891-.50391-.88086-.88086-.88086-.37891-.126-1.00781.126-1.25977.126-.37695.88086-3.14648,1.51074-3.39843,2.13965-.50391.88183-1.63672,2.01464-1.76172,2.51757-.75586,1.00782-1.38477,1.63672-1.38477,2.51856-.75586,1.25879-.12695,2.3916-.63086,3.65039A5.69969,5.69969,0,0,0,292.18876,126.71054Z"/><path class="cls-2" d="M382.82743,114.12167l-.75391.37793-1.00781.75586-1.38477.6289-.88086.37793a2.36977,2.36977,0,0,1-1.51171.126,22.70073,22.70073,0,0,0-1.63672,1.76269,6.51654,6.51654,0,0,0-2.64258,1.76172c-.62891.62989.6289.252-.127.88184l-.502.50293-1.76367.88086a2.83982,2.83982,0,0,0,.127.5039l-.127-.126c0,.37793-.125.5039-.62891.75586a1.23123,1.23123,0,0,0-1.25781.75488l-.12695.37793-3.65039,2.76953-.50391.50293v.50391l-1.13281.88086-.88086.62988-.75586,1.00684-.88086,1.00683-.252.37793-.75586.75586c0,.37695,0,.50293-1.13281.88086l-.75391,1.13281c-.50391.50391-1.38477.126-1.76367-.25195l-.252-.25195c-.125,0-.252.126-.7539.5039a7.1332,7.1332,0,0,1-1.51172-1.38476c0-.126-.125-.126-.125-.252-.50391-.37695-.50391-1.13281-.25195-1.88769l1.63672-5.16113a6.34838,6.34838,0,0,0,1.25781-2.64454c.5039-1.25878.88086-2.64355,1.25976-3.90234l1.25782-2.13965c0-.126.127-.5039.127-.75488a3.70359,3.70359,0,0,1,.25195-1.25977c0-.125.125-.251.125-.37695l.88086-1.13281a3.0993,3.0993,0,0,0,.127-1.51074,1.77694,1.77694,0,0,1,.252-.75586c1.00586-.75489,1.25781-2.39161,1.38476-3.52442a1.82647,1.82647,0,0,1,.62891-1.51074l.125-.126c.252-1.00683.50391-1.63672.75586-2.3916l.75586-1.00683a1.48912,1.48912,0,0,1,2.39062-.37793l-.125-.126a3.52955,3.52955,0,0,1,1.50977,1.00684,3.98107,3.98107,0,0,1,0,2.14062c-.62891.377-.75391,1.00684-.88086,1.76172a2.64219,2.64219,0,0,0-.25195.75586l-.50391,1.63672c-.502.50293-.502,1.13281-1.13281,2.01367-.252.25195-.377.62988-.252,1.51074a11.534,11.534,0,0,1-1.63476,2.76953l.125.37793c-.125.377,0,.62891-.252.88086a10.79307,10.79307,0,0,0-.75586,1.63672,4.7764,4.7764,0,0,1-1.25782,2.51758c-.12695.126-.12695.37793-.12695.75488.12695.126,0,.37793-.125.50391a.94569.94569,0,0,1-.125.6289c0,.126-.127.126,0,.252a6.38088,6.38088,0,0,0-.88281,1.88867l-.377.88086.88085-.75488a2.14443,2.14443,0,0,0,1.25977-1.00684l1.25781-1.00781c.50391-.252,1.88867-1.13282,2.01367-1.8877l-.125.126c.125-.37793.377-.50391,1.00782-.75586a4.32578,4.32578,0,0,0,1.50976-1.51074c.88086-.377,1.76172-1.51075,2.64453-1.63575a7.08555,7.08555,0,0,1,1.88672-1.51074c1.25977-.75586,1.13282-1.00781,1.25977-1.51074a4.20908,4.20908,0,0,1,1.63672-.88184l.6289-.377,1.25977-.37793c.125-.252.75391-.88086,1.13281-1.38476a.9739.9739,0,0,0,.377-.126l3.02149-.75488a4.90959,4.90959,0,0,1,1.88867.251,14.31124,14.31124,0,0,1,2.76953,1.38477c0,.126,0,.126.125.126.252.37793.75586.5039.62891.75585a.45764.45764,0,0,0,.12695.377c.377.62988.88086,1.51074.50391,1.76269l-.63086.88184c.12695.125,0,.251-.125.50293-.127.75586-.50391,1.63672-.62891,2.14062l-.5039.75489a5.924,5.924,0,0,1-2.14063,0,5.10437,5.10437,0,0,1-.377-1.00684,2.26978,2.26978,0,0,0,.252-1.25879,3.05992,3.05992,0,0,1,.50391-1.51074,4.09138,4.09138,0,0,1,0-1.25879v-.88184h-.75586Zm-.75391.37793-.12695.126h.12695S382.19852,114.4996,382.07352,114.4996Z"/><path class="cls-2" d="M413.41922,126.83651l-1.13476-3.14746a6.6148,6.6148,0,0,0-.502-3.39844,2.19274,2.19274,0,0,0-.127-1.76269,5.61472,5.61472,0,0,1-.5039-.88086c-.252-.126-.502-.37793-.75391-.37793l-1.88867.75586c0,.126-.127.251-.127.37695a5.36437,5.36437,0,0,0-3.27149,2.14063l-1.13281,1.25879a10.489,10.489,0,0,0-2.89649,2.3916l-.6289.75488-3.52539,3.39941a2.7244,2.7244,0,0,1-.62891,1.00684c-.252.37793-.50391.37793-.377.75586.125.125-.127.251-.63086.62891a18.77949,18.77949,0,0,1-1.76172,1.51074c-.75586.37793-1.13281,1.00683-2.14063,1.25879a3.3293,3.3293,0,0,1-3.02148-1.00684,2.89757,2.89757,0,0,1-.125-3.02148c.125-.126.125-.126.125-.252l.50391-.88086c.12695-.126.25195-.37793.25195-1.00683a9.16053,9.16053,0,0,0,1.00781-2.01465,4.68285,4.68285,0,0,1,1.63672-2.76953.12273.12273,0,0,0,.125-.126l.75586-1.88769a2.48443,2.48443,0,0,1,.75391-1.51075l1.00781-2.64355.62891-1.51074,1.38476-3.14746.50391-1.8877h-.125a4.77,4.77,0,0,1,1.13281-2.01465c.125-.126.377-.37793.252-.6289a1.83208,1.83208,0,0,1,.75391-1.13379c.25195-.75489.50391-.75489,1.76367-.251l.25195.377c.75391.37793,1.13282,1.13379.88086,1.63672l-.252.88184c-.377.377-.88086,1.25879-.62891,1.13281l-.12695.62891-.50391.75586.127-.126-1.25977,3.77637a2.89161,2.89161,0,0,0-.37695,1.13281c0,.25195-.377.50391-.50391.62988a6.11156,6.11156,0,0,0-.5039,1.76172l-.75391,1.25879.125-.126-.377,1.63672a2.37576,2.37576,0,0,1-1.25977,1.63672v-.126c-.125.126-.125.252,0,.50391a2.19372,2.19372,0,0,1-.5039,1.51074l-.125.126h.125a4.30924,4.30924,0,0,1,.75585-.75586l.88086-1.13281.37891-.37793,2.13867-2.01367.37891-.252.37695-.5039a.95047.95047,0,0,1,.50391-.126c.125-.126.5039-.126.5039-.251a9.94025,9.94025,0,0,1,.75391-1.00781l.37891-.37695a2.31873,2.31873,0,0,1,1.13281-.88184c.125,0,.37695-.252.50391-.377a1.91339,1.91339,0,0,1,1.25781-.75586c.252.126.252,0,.3789-.50391l1.76172-.88086c-.252,0,.377-.25195.88086-.37793.127,0,.377-.126.50391,0a7.342,7.342,0,0,1,2.39062.252,3.97946,3.97946,0,0,1,1.88868.75586,3.0701,3.0701,0,0,1,1.13281,1.38476,5.11722,5.11722,0,0,1,1.63672,3.27246,16.85753,16.85753,0,0,0,.63086,2.39161,13.14613,13.14613,0,0,0,.6289,3.77734c.62891,1.13281.62891,2.64355,2.51758,2.64355-.127-1.76269,5.53906.88086.377,2.39161-1.76172.50292-4.53125-1.51075-5.16015-3.02149Z"/><path class="cls-2" d="M457.85672,120.41659l-.127-.25195c0,.25195-.6289.62988-1.13281.75488l.12695.126-.88086.88183-.75586,1.13281-.5039.126a1.01683,1.01683,0,0,0-.75586.62891c0,.126-.502.75586-.88086.75586l-.50391.25195c-.125.251-.37695-.88184-.7539-.75586l.125.25195c0,.37793.127.62891-.252.75489h-.125a5.9533,5.9533,0,0,1-.6289.252l-.252.50391c0,.37793-1.76367,1.00683-1.76367,1.13281-.25195.75488-1.38476.88086-2.39062.75488-.37891-.126-.50391-.251-.37891.50391,0,0,.127.5039-.125.5039a3.649,3.649,0,0,1-1.38477.377l-1.13281.62988c-.12695,0-.25195.126-.3789.126,0,.126-.25,0-.502.126,0,.126-.3789.251-.5039.251.125.62988-.37891.88184-.88086.88184h-.252l-.88086.37792c-.252,0-.5039-.126-.75585.251v-.126c-.127.37793-.62891.252-1.00782.252a2.71842,2.71842,0,0,1-1.38476.126,5.85053,5.85053,0,0,1-4.2793-.6289,1.80966,1.80966,0,0,1-1.63672-.50391l-1.50976-1.13281c-.127-.25195-.50391-.37793-.75586-.88086a3.47252,3.47252,0,0,1-1.13282-1.7627l-.63086-.5039a3.86449,3.86449,0,0,1-.6289-1.13281,17.42937,17.42937,0,0,1-.377-3.77637c-.127-.88086-.62891-1.63672,1.00585-3.27344,1.00782-1.13281.88282-1.13281,1.00782-1.51074v.126c.75586-1.76172.5039-.75489.75586-1.13282l1.76172-2.01367,1.25976-1.25879c.125,0,.25195,0,.25195-.252a1.48287,1.48287,0,0,0,.75391-.62988,2.36242,2.36242,0,0,1,1.38477-.62891,2.36956,2.36956,0,0,0,1.00781-.25195l1.00781-.37793.50195.126c.88282.126,1.76368.126,2.14063,1.13282.12695,0,.25195.126.37695.252.127.126.252.25195.37891.25195a3.56029,3.56029,0,0,1,2.01367,3.65039c-.125,0-.125.252-.125.252-.37891-.126-.63086.126-.127.5039l-.252.75489a1.69692,1.69692,0,0,0-1.13281,1.13281l-.6289.37793-.50391.6289a2.93755,2.93755,0,0,1-1.50977,1.25977,3.88192,3.88192,0,0,1-1.13281,1.76172l-.37891.37793a7.0834,7.0834,0,0,1-2.26562.88086c-.25195.252-.88086.252-1.25781.252l-1.88867.25195c-.75586-.126-1.13282.37793-.88086.75489,0,.62988.125,1.13379.7539,1.38476a5.64744,5.64744,0,0,0,3.39844,2.01465,16.5127,16.5127,0,0,0,6.29492-1.38477l.88086-.25195a15.56074,15.56074,0,0,0,2.51758-1.25879l1.00781-.25195a2.84374,2.84374,0,0,1,1.38477-.62891c.252,0,2.01367.126,1.63672-.37793l.75586-.75586c.125-.37695.502-.50293,1.13281-.50293.502-.126.88086-.252,1.00586-.75585l1.88867-1.25879c1.00781-.62891,1.13281-.88086,2.01367-1.51075l1.51172-1.00683a1.2064,1.2064,0,0,1,1.13281-.62891c1.88867.62891,1.76172-2.51758,3.52539-2.51758,1.38477-1.25976,4.02735-3.65136,4.2793-2.2666-.88086,1.7627-3.90234,4.65821-5.53906,5.917A3.08038,3.08038,0,0,1,457.85672,120.41659Zm-20.01562-6.29492-.12695-.125-1.25782.50293c0,.5039-.37695.5039-.6289.37793h-.252l-.63085.252c-.62891.37695-1.13282.126-1.38477.88086,0,0-.37695.25195-.62891.37793-1.50976.62891-1.38476,1.76269-2.01367,2.01367-.6289.50391-.6289,1.7627-.125,1.63672l.502-.126a11.8766,11.8766,0,0,0,2.14063-1.13281l3.02148-2.76953.62891-.75488.88086-.88184A.39159.39159,0,0,0,437.8411,114.12167Z"/><path class="cls-2" d="M479.38407,144.83846v.126c-.127,0-.127,0-.127.75488.3789.50391.127,1.00684-.377,1.51075l-.37695.88086v-.126a3.47146,3.47146,0,0,0-.63086,2.2666,10.01372,10.01372,0,0,0-.75391,1.63574l-.75586,1.63672c-.6289,0-.88086.25195-.88086.50391s.125.6289.125.75488a34.34671,34.34671,0,0,1-1.38476,3.14746l-.377.126a4.15756,4.15756,0,0,0-1.00782,2.13965c0,.75586,0,1.38476-.252,1.38476l-3.27344,5.41309c0,.25195-.25,1.13281-.25,1.25879a10.83236,10.83236,0,0,1-1.63672,2.51758.38875.38875,0,0,1-.12695.252,7.8261,7.8261,0,0,1-.377,1.25879l-.62891,1.00683-1.13476,1.88868-.75391,1.13281v-.126a2.18189,2.18189,0,0,0-.62891,1.13281v-.125a14.81069,14.81069,0,0,1-1.76367,2.39161,4.40609,4.40609,0,0,1,.127.75488,14.17831,14.17831,0,0,1-3.27343,3.65039,9.55769,9.55769,0,0,0-1.88867,2.89551v-.126l-1.38477,2.01465-1.50977,2.26562A10.93642,10.93642,0,0,1,450.179,195.318a7.1838,7.1838,0,0,1-1.38477,1.63672,3.06614,3.06614,0,0,1-1.25976.75488l-1.50977,1.76269h-.63086l-1.25781,1.88868-1.88867.88086-1.13281.6289a.97894.97894,0,0,0-.88086.37793l-.252.126c-.88085.5039-1.63671.75488-8.43359.37793h.125a3.2011,3.2011,0,0,0-1.25976-.88184c-.75391-.37695-1.25782-.6289-1.25782-1.50976l-.127-.75586c-.62891-.126-.62891-.75489-.62891-1.13282L427.39383,194.94a2.437,2.437,0,0,0-.12695-.88086.74015.74015,0,0,0-.125-.50391c.62891-.6289.25195-1.00683.125-1.38476,0-.377,0-1.00684.25195-1.00684,1.63672-1.63672-1.13281-1.7627,1.88868-2.51758v-.62988a3.915,3.915,0,0,0,.75586-1.8877c-.75586-.62988-.75586-1.51074.125-2.51757.377-.50391.377-.50391.6289-.62989,0-1.38476,1.00781-2.3916,1.76367-3.27246l1.38477-1.51074,1.50976-3.39941h-.125c.62891-.251.88086-.88086,1.13282-1.25879.125-.126.125-.252.125-.50293a1.14306,1.14306,0,0,0,.88086-.37793.738.738,0,0,1,1.25976-.50391c.125.126.252.126.252.252.377-.88086.5039-1.63671.88085-1.76269.62891,0,.75586-.50293.75586-1.13281.125,0,.25-.252.25-.62891,0-.25195,0-.37793.127-.50391,0-.126.377-.5039.377-.6289a1.694,1.694,0,0,0,.252-1.00781c.62891.25195.50391.25195.62891.62988.50391,0,.50391-.50391.50391-.62988l.127-.251.50391.50293c.502-.25195.7539-.37793.502-.37793a3.30228,3.30228,0,0,0,1.51172-3.02051c0-.126,0-.252.125-.252,2.01562-1.13281,2.76953-1.25879,4.15429-5.16114a21.61762,21.61762,0,0,1,3.27344-1.25878c.252-.126.50391-.88184.75586-1.63672,0-.37793,0-.126.125-.37793a1.90914,1.90914,0,0,1,1.13281-1.25879l.75586-.37793c.62891-.62891,1.13282-1.38477,2.01367-1.38477a1.36934,1.36934,0,0,0,1.00782-1.25879c.377.126.377.252.5039.62989.88086-.37793,1.00586-.37793,1.13282-.50391a3.14527,3.14527,0,0,0,.125-1.13281c0-.126.127-.37793.252-.37793l1.76172-1.25879a2.3883,2.3883,0,0,1,1.00781-1.25879l.50391-.50293c.25195.125.25195.251.25195,1.00684h.88086a5.12538,5.12538,0,0,1-.252-1.25879,4.35456,4.35456,0,0,1,.6289-1.00684l.63086.88086c0-.126.125-.37793.25-.88086.88281,1.25879,1.00781.88086,1.63672.50293l.75586-1.25879a17.38114,17.38114,0,0,0,1.63672-.75488l.75586-.37793a1.56926,1.56926,0,0,0,.7539-1.25879c0-.126.37891-.25195.50391-.37793a2.2342,2.2342,0,0,0,1.00781-.62891l.50391.251a2.83777,2.83777,0,0,1,1.38476-1.00683,2.86207,2.86207,0,0,0,.75391-1.51075q0-2.45361,1.51172-2.64355c-.25195-1.25879-.50391-1.38477-.25195-1.63574a2.58757,2.58757,0,0,0,.125-2.14063c.25195-.75488,1.13281-1.25879,1.76367-1.63672,0-1.13281-.50391-1.88769,0-2.51758a14.23485,14.23485,0,0,1,1.00586-4.40625,6.185,6.185,0,0,1,.252-2.3916l.25195-.25195v-.50293l.252-.37793v-.37793h-.377v.126l-.12695.25195-.125.126v-.126a2.663,2.663,0,0,1-.88086.37793c-1.00781-.37793-1.00781,1.13281-1.51172,1.51074-1.38476.62891-1.50976,1.63574-2.89453,1.8877,0,0-.25195,0-.12695.37793-.252.37793-.75391.37793-1.25781.5039l-1.63672.62891c-.88086,1.38477-2.76953,1.38477-3.65039,2.64355l-.252.252a1.75507,1.75507,0,0,0-2.01367.5039c-.3789.251-1.38476,0-1.25976.251-.50391.62988-.88086.37793-1.63672.37793-.377,0-.88086-.50293-.88086,0a1.7025,1.7025,0,0,1-1.25977-.126c-1.76172-1.88769-3.39844-3.65039-3.90234-5.916-.125-.88184-.377-1.38477,2.01562-7.55371.75391-.62891,1.25782-2.3916,2.01368-3.14649.252-.5039,1.00781-1.51074,1.13281-1.88867,2.01367-.62891,5.16211-1.51074,3.27344,3.27344h.125v.125l-2.76954,4.53222c-.37695.62989.50391,2.26563-.6289,2.01465-1.25977.75489.377,4.2793,2.14062,4.53125.252.126.62891.126.88086-.50293,1.00586-1.38476,2.01367-.5039,3.27344-1.51074l1.88672-1.25879c1.25976-.75586,4.1543-1.51074,4.40625-2.51758a50.36143,50.36143,0,0,0,4.78515-5.53906l.377-.62988c.377-.50293,1.25781-3.14649,1.76172-3.27246,1.13281-1.13379,1.38476-2.01465,2.39257-.37793l.75586.5039.125-.126v-.126l.125-.62988c.252.126.252.37793.252.88183,0,.75489.3789,2.13965-.377,3.39844.125.50391.125,1.25879.377,1.38477a4.83033,4.83033,0,0,1,.252,2.26562c-.50391.252-.50391,1.00781-.50391,1.25879,0,2.51758.50391,4.6582-1.25781,6.4209,0,0,0,.125-.25195,0l.5039,1.63574a6.182,6.182,0,0,1-.3789,2.51758c-1.00586,1.63672-1.88672,3.14746-1.38477,5.53906a4.65913,4.65913,0,0,1-1.13281,2.51758,133.2402,133.2402,0,0,0,15.98828-11.833,15.54639,15.54639,0,0,0,2.51758-2.26562l.88086-.62988c.37891-.126.37891-.377.75586-.377,0-.126.37695-.25195.37695-.37793l.63086-.5039c.75391-2.39161,1.50977-1.76172,1.88672-2.51758l.252-.50293c-.125-.75586.62891-1.13379,1.00782-1.7627a6.01712,6.01712,0,0,0,.5039-1.00683l2.01367-.62989,1.63672-1.13281.125-.88086s0-.37793.127-.5039c2.01367-.62989.252,1.76269-4.40625,7.17578-.252.50293-.50391.75488-.50391,1.00683-1.00781,1.25879-1.63672,3.52442-2.89453,3.65039l-.75586,1.00684a75.36687,75.36687,0,0,1-12.33789,10.19727c-.25.6289-1.38281,2.3916-8.5586,6.29394C481.02079,141.817,479.888,144.08261,479.38407,144.83846Zm-5.41406.377-2.39063,1.38476a.75482.75482,0,0,0-.50391.126l-.5039.25195c-.125.50391-.377.62989-.377.75489l-.37891.37793-.75391.126-.5039.75586c-.50391,0-.75586.251-1.00782.88086l-1.76171.50391c-.252,0-.50391.50293-.63086.6289h-.125a6.49282,6.49282,0,0,1-2.01368,1.51075s-.6289.5039-1.00781.88086h.127a6.07423,6.07423,0,0,0-2.01562,1.51074c-.37695,0-.37695.5039-.37695.5039a6.44381,6.44381,0,0,1-1.76172.88086l-.50391.75586h.125l-2.26562,1.25879-1.38477,1.13281c0,.126-.125.50293-.125.75489-.127.252-.37891,1.00683-.63086,1.13281h.127a.86286.86286,0,0,0-.6289.75586l-.50391.88086a4.148,4.148,0,0,1-1.00781.75586l-.50391.50293c-1.00586,1.38476-1.25781,1.51074-1.76172,1.63672l-1.00781,1.51074-.88086.75488c-1.00586,1.13281-1.63672,1.88867-2.13867,2.01465,0,.62891,0,.62891-.252.62891a2.72713,2.72713,0,0,0-1.13281.88183,1.95609,1.95609,0,0,1-1.38477,1.00684.958.958,0,0,0,.25.5039c-.62891.125-1.00586,1.00684-1.25781,1.8877-.50391.75586-1.00782,1.76269-1.63672,2.01465-.88086.6289-1.38477,1.88769-2.14063,3.14648v-.126a12.05329,12.05329,0,0,1-2.13867,3.02148,2.81624,2.81624,0,0,0-.3789,1.76269,3.30364,3.30364,0,0,1-.75391,1.00684,7.978,7.978,0,0,0-1.38477,3.14746,1.10456,1.10456,0,0,1-.127.88086v-.126a1.96,1.96,0,0,0-.252,1.00684l-.377.37793c-.12695.37793-.6289,1.51074-.6289,1.51074a4.23112,4.23112,0,0,0-.252,2.51758c0,.50391.125.75586.125,1.25879a5.41873,5.41873,0,0,0,.127.62988,1.74567,1.74567,0,0,0,1.00586.88086c0,1.63672.252,1.7627,1.00781,1.63672l2.76953-.126.50391-.5039.6289.252a2.93148,2.93148,0,0,0,2.14063-.75488c.50195-.50391.50195-.62988.50195-.62988a2.21372,2.21372,0,0,1,.63086.126l1.00586-1.25879c.252.126.63086.126,1.25977-.25195a1.31269,1.31269,0,0,1,1.25781-.50293c.25195-1.51074.63086-2.14063,2.26758-1.88867,0-.75488,0-1.13281.37695-1.13281a3.20591,3.20591,0,0,0,1.13281-1.38477l.377-1.00684,1.13281-.37793a.44464.44464,0,0,0,.5039-.5039.55134.55134,0,0,1,0-.75488,1.97713,1.97713,0,0,0,1.25977-.50391c.75391-1.00684.88086-1.13281,1.13281-1.13281.125-.50391.125-.50391.252-.50391.252,0,.88085,0,1.00585-.251a2.7806,2.7806,0,0,0,0-1.51074c0-.75586,0-1.13281,1.00782-1.00781,0-.125.125-.88086.125-1.13281.3789,0,.5039-.62891.5039-.88086.63086-.37793.75586-1.51075.88086-2.13965l1.38477-.88184.5039-.88086c.252,0,.37891-.25195.62891-.37793a4.53151,4.53151,0,0,1,3.14844-4.28027l-.252-1.25879c.5039,0,.5039-.37695.5039-1.25879a.8688.8688,0,0,0,.377-.50293,2.04,2.04,0,0,0,.50391-.88183c.25195-.252.37695-1.00684.62891-1.00684s.252-.37793.252-.62988l1.63672-2.01367.25195-.37793,1.38477-2.39161a3.00026,3.00026,0,0,1,1.13281-2.51757c.377-.126.252-.252.252-.50391.252-.126.252-1.00684.377-1.63574a2.3186,2.3186,0,0,1,.88086-1.25977l.63086-1.00683,3.27148-5.79a4.43833,4.43833,0,0,0,.127-.88184c.50391-1.51074.88086-3.65039,2.26563-3.39844v-.25195l-.50391-.37793Z"/><path class="cls-2" d="M600.73758,60.24374l-1.00586.126h.125a4.69777,4.69777,0,0,1-1.13281.251,1.20037,1.20037,0,0,0-.88086-.251,3.482,3.482,0,0,1-1.13281-.126c-.37891,0-.88281-.126-.88281-.50391.12695-.37793.63086-.5039.88281-.62988h-.50391a2.52777,2.52777,0,0,0-.6289.126c-1.38477,1.25878-3.02149,1.13378-5.16211.62988A2.84275,2.84275,0,0,1,592.9329,59.11a4.32428,4.32428,0,0,0,1.25976-.125h-.63086a2.69842,2.69842,0,0,1-1.00586,0,8.28351,8.28351,0,0,0-3.90234.125c-.50391,0-1.76367.126-2.39258.126a13.66756,13.66756,0,0,1-3.14648.5039,12.19991,12.19991,0,0,0-2.14063.126l-.6289.5039a.672.672,0,0,1-.50391-.37792v.126a1.53752,1.53752,0,0,1-.37695-.25195,5.52574,5.52574,0,0,1-.63086.126,8.101,8.101,0,0,0-1.88867.75488,3.0939,3.0939,0,0,0-1.50977,2.14062,9.42739,9.42739,0,0,0-1.25781,2.13965,8.57507,8.57507,0,0,0-.37891.88086l-.50391.75586c-.125.37793-.25195.62891-.37695.62891a2.79065,2.79065,0,0,0-1.13281,2.01464c0,.252-.25195.50391-.25195.62891a15.91069,15.91069,0,0,1-1.76172,3.90234l-.37891.62989c.12695-.126-.37695.5039-.50391.75488a9.47373,9.47373,0,0,0-1.00585,1.7627,3.22727,3.22727,0,0,0-.88086,1.25878s-.75586.50391-.88086.62989l-.127.25195a3.28138,3.28138,0,0,1-.37695,1.38477c0,.125-.12695.251-.12695.377a.67334.67334,0,0,0-.377.50391,1.14189,1.14189,0,0,1-.37695,1.13281l-.37891-.252a7.1877,7.1877,0,0,1-1.38476,2.76953,3.10507,3.10507,0,0,0-.75586,2.01464,4.59434,4.59434,0,0,1-.37695,1.76172h-.88086c0,.126-.127.252-.127.50391a.77867.77867,0,0,0-.25.88086h-.12695a1.70115,1.70115,0,0,1,0,.88184l-2.76953,5.16113-1.13281.88086a3.08762,3.08762,0,0,0-1.00782,1.51074v-.126c-.125.50391-.125.75586-.37695,1.00684a1.69363,1.69363,0,0,1,.25195,1.13379l-.25195.50293a45.29827,45.29827,0,0,1-2.76953,4.02832l-.37695-.126a11.58269,11.58269,0,0,0-1.63672,3.02149l.252-.252a12.055,12.055,0,0,1-.5039,2.51758,5.49386,5.49386,0,0,0-.125.62988l-1.00782,1.51075a2.87824,2.87824,0,0,1-1.76172,2.51757l-.12695.252-1.25781,1.13281a2.0349,2.0349,0,0,0-1.00781,2.26562c-.62891.75586-1.63672,4.40625-2.01368,5.41309a13.86649,13.86649,0,0,1-1.00781,1.88867,12.11564,12.11564,0,0,0-1.25781,2.64356l-.88281,3.0205a21.65468,21.65468,0,0,0-1.50977,5.16211l-.25195,5.03516a2.21155,2.21155,0,0,0,.125.62891,1.67681,1.67681,0,0,1,.3789,1.00781h-.12695l.63086.88086-2.14062.37793c-.127,0-.62891,0-.75586-.37793a.762.762,0,0,0-.125-.50391,7.11063,7.11063,0,0,1-1.88868-5.66406c0-.252.252-.62988.252-.88184a7.26606,7.26606,0,0,1,.75586-2.64355,5.64508,5.64508,0,0,0,.7539-1.63672c.127-.251.63086-.75488.50391-1.13281l.62891-2.26563a16.6786,16.6786,0,0,1,.88281-2.26562c-.37891.126-.37891.126-.37891.377a2.15618,2.15618,0,0,0-.252.62988l-.50391,1.51075a2.76672,2.76672,0,0,1-1.25781,2.01367l-.25195-.126.25195-1.51074a37.999,37.999,0,0,1,2.01367-5.03516c.50391-1.13281,1.51172-5.28711,2.14063-6.042l.37695-1.00684a3.75085,3.75085,0,0,1,.25195-1.25976c.127,0,.50391-.125.62891-.125a1.73645,1.73645,0,0,0,1.51172-.62988l.25195-1.51075c-.12695.252-.25195.252-.25195.37793-.127.62891-.62891,1.13282-1.63672,1.51075a8.54006,8.54006,0,0,0,.88086-2.14063l.5039-1.13281v.126a5.99038,5.99038,0,0,1,.75586-1.38477,6.43556,6.43556,0,0,0,1.13282-2.64356l.88086-1.51074,1.00781-2.26562a1.52009,1.52009,0,0,1,.25-1.00684,1.70589,1.70589,0,0,0,1.38476-2.39258h1.25977a1.14914,1.14914,0,0,0-.37695-.6289c-.37891-.37793.125-.88086.37695-1.51074a6.15355,6.15355,0,0,1,1.38477-2.51758,3.94641,3.94641,0,0,1,1.13281-1.51075v-.62988l.12695-.6289a3.83689,3.83689,0,0,0,.62891-.88086,2.48645,2.48645,0,0,1,1.38476-1.63672l.252.25195a2.01169,2.01169,0,0,0-.50391.88086,1.37564,1.37564,0,0,0,.50391-.62988,4.5231,4.5231,0,0,0,1.25781-3.65039c-.125-.126-.125-.252,0-.252.252-.251.127-.50293.252-.75488a.75443.75443,0,0,0,.75586-.37793l.50391-.252a6.00717,6.00717,0,0,1,.6289-1.50977,3.04484,3.04484,0,0,0,.75586-1.00781,19.25884,19.25884,0,0,1,1.63672-2.13965,2.13824,2.13824,0,0,0,.25-.62988c.12695-.75488.37891-1.25879.12695-1.63574l.377-.88184c.12695-.126.25195-.252.25195-.37793-.37695-1.00684,0-1.00684.62891-.88086h.25195c0-.126.12695-.50293.12695-.6289a2.418,2.418,0,0,0,.377-1.00782,2.64238,2.64238,0,0,1,.25195-1.76172,1.3003,1.3003,0,0,1,1.25977-.88183c.37695-.252,1.13281-.75488.88085-1.63574a6.77791,6.77791,0,0,0,1.50977-2.76954l.50391-1.13378c0-.377.125-.377.125-.62891a1.133,1.133,0,0,0,.12695-1.25879c-.12695-.62988,0-1.13281.25195-1.25879a8.89137,8.89137,0,0,1,1.25782-2.01465l.75585-.75488h-.125a18.41887,18.41887,0,0,1,1.25782-2.76953l.12695-.126c-1.38477.126-2.64453.126-3.65234.126a19.40884,19.40884,0,0,0-5.41211.75488,2.77378,2.77378,0,0,1-1.00782-.126c-.125,0-.50195-.125-.6289,0a.83543.83543,0,0,1-.75586-.125,2.29828,2.29828,0,0,1-1.88672.75489,9.73948,9.73948,0,0,0-2.64453.126,76.19261,76.19261,0,0,1-8.05664,1.51075c-.37695.252-1.00781,0-1.63672,0h-.50391a.44369.44369,0,0,0-.25195.126,3.11539,3.11539,0,0,1-1.13281.50293,1.342,1.342,0,0,0-1.00586,0h.125a4.2725,4.2725,0,0,1-1.25781.126c-.127,0-.37891.252-1.00782.75586-.75586-.75586-1.63672.251-2.64453,1.25879l-1.63476.126a7.16351,7.16351,0,0,0-2.76953.50293c-.37891-.252-1.00782,0-1.38477.37793a4.1162,4.1162,0,0,1-1.76367,0h-.252a16.80767,16.80767,0,0,1-3.90234,1.13282l-2.13867.5039c-.50391-.37793-1.25977,0-1.88867.252l-.62891.125c.125-.125-.75586.25195-1.13281.25195l-.75586.126-.88086.37792c-.50391.126-1.00781.50391-1.63672.126-.25195-.126-.37891.126-.37891.37793a4.52614,4.52614,0,0,1-2.26562.251.96186.96186,0,0,0-.50391.25195,2.99937,2.99937,0,0,1-1.13281.37793,18.31548,18.31548,0,0,1-2.51758.62891,16.22218,16.22218,0,0,1-2.64258.88183h-1.25976a4.9715,4.9715,0,0,1-2.64258.50293c-1.76367.252-2.14062-.75488-1.88867-2.51758,0-.126-.127-.25195-.127-.50293,0-.37793.127-1.25878-.125-1.38476a1.478,1.478,0,0,1,.6289-1.38477,5.89366,5.89366,0,0,1,2.39258-.75586l1.25781-.50293v.251l.75586-.75488c.252-.126.377-.126.377-.75488l1.25976.251h.50391a14.857,14.857,0,0,0,2.51758-.50293l1.50976-.126c.88086-.126,2.64453-.37793,2.01563-.37793h-.127l2.26563-.50391a6.28714,6.28714,0,0,1,1.76367-.377l.50195.75488-.88086.75586c-.7539-.126-1.63672.377-2.51757.50293-.125.126-.75586.126-.88086.126a1.54354,1.54354,0,0,1-.62891.252c-.25195.126-.12695.126-.12695.126v.126l3.40039-.62988,1.63476-.377h-.125a8.43284,8.43284,0,0,0,.88086-.37793l2.26563-.252a21.64643,21.64643,0,0,1,2.26562-.5039h.63086a3.18271,3.18271,0,0,1,2.13867-.126,5.60153,5.60153,0,0,0,1.00782-.251,1.35334,1.35334,0,0,1,.75586-.252,25.53756,25.53756,0,0,0,2.89453-.88086l1.63672-.252c.88085-.126,2.26562,0,3.39843-.126a15.818,15.818,0,0,0,4.1543-.62988l2.64453-.62891c.75586-.126,1.88867-.25195,2.89453-.5039.62891.252.75586.252,1.00781.75585.50391-.88183,1.50977-.88183,2.51758-1.00781l.62891-.252c2.89648,0,5.03516-.50293,7.93164-.75488.25195.252.62891,0,.88086-.126a8.60824,8.60824,0,0,0,2.64258-.126,10.223,10.223,0,0,0,2.76953-.126,13.59471,13.59471,0,0,1,4.5332-.50293c.62891.251,1.13281-.126,1.63672-.252h.75391c-.125-.88086.12695-1.00683,1.13281-2.64355.37891.37793,1.00781.252,1.51172.50293a3.06246,3.06246,0,0,1,2.51758,1.25976,1.682,1.682,0,0,0,2.14062.88086h-.12695a7.24491,7.24491,0,0,1,3.27344-.252,10.22613,10.22613,0,0,0,2.76953-.126,5.76638,5.76638,0,0,1,2.14062-.126h.62891c.125,0,.25195.126.37695.252.12695,0,.37891-.126.88086-.252.50391-.126,1.00781-.377,1.38477-.126l3.40039.126a25.85086,25.85086,0,0,1,4.53125-.252l1.76172.126a4.99312,4.99312,0,0,1,3.02148.50391,8.30833,8.30833,0,0,0,1.76172.126h2.64453a10.16705,10.16705,0,0,1,2.01367.126,13.86568,13.86568,0,0,1,3.52539.50293c.125.126.50391.126.75586.126l2.13867.62988a18.77356,18.77356,0,0,1,2.14063.252c1.00781.251,2.01367-.5039,2.51758.251l.5039.62988.125-.126c.88282.75585,2.39258,2.14062,2.64453,3.14746a6.42611,6.42611,0,0,1,.62891,3.90234,4.88781,4.88781,0,0,1-1.76172,2.51758c-.252,0-.88086,0-.88086.126.75391,1.8877-5.16211,2.51758-5.16211,1.13282,0-.37793.88086-1.13282,1.00782-1.38477-.252-.37793,1.50976-1.38476.25195-1.25879l1.25781-1.00683v.126l.88086-.75586a1.612,1.612,0,0,0,.50391-1.25879c.12695-.50292-.125-.50292-.252-.6289a1.27061,1.27061,0,0,1-.37695-.126,9.50162,9.50162,0,0,1-1.63672-1.25879l-.252-.37793c-1.00781.126-1.25781,0-1.76172-.5039-.25195.252-.50391.252-1.00781.62988,0-.50391-.125-.50391-.252-.50391-.5039.252-1.00586.37793-1.25781-.377,0-.126-.252-.50391-.88281-.252h.127c-.377,0-1.38476-.252-2.26562-.37793-.75586-.252-1.25977-.252-2.64453.5039,0-.126-.125-.62988-.125-.75586,0-.50293-.127-.75488.25195-1.00683-.37891,0-.88086.126-1.63672,1.00683h-.50391a5.21348,5.21348,0,0,1-1.88867-.25195h-.75586c-.25,0-.6289,0-.6289-.251l-.125.125C601.36649,60.62069,600.98954,60.74667,600.73758,60.24374ZM510.60477,65.9078a4.51781,4.51781,0,0,1-2.26562.252l-.63086.75586c.127,0,.252-.126.3789-.252A3.92129,3.92129,0,0,0,510.60477,65.9078Zm1.38477-.75488-1.13282.6289,1.38477-.251Zm84.97265-6.043a4.43465,4.43465,0,0,0,2.26563.126,3.877,3.877,0,0,0-1.63672-.126Z"/><path class="cls-2" d="M564.35868,129.984c-.127-.126-.127-.25195-.127-.5039a1.05873,1.05873,0,0,0-.5039-.88086,5.108,5.108,0,0,1-1.50977-4.91016c.377-1.13281.125-1.88769.75586-3.02051.252-.62988-.5039-.37793.125-.62988.127,0,.127,0,.127-.126.125-2.13964,1.63476-3.02148,2.39062-4.53125,1.00781-.25195,2.01367-1.38476,1.51172-2.14062a3.67735,3.67735,0,0,1-.12695-2.01367c-.125-.50391.12695-1.00782-.125-1.51075a5.59413,5.59413,0,0,1,1.50976-2.14062c.37891-.50293,1.25977-.251,1.88867-.251,1.13282,0,3.77735-1.13379,7.30078,1.50977.63086.75586,1.38477,1.76269,2.14063,2.51855a8.14128,8.14128,0,0,1,.62891,2.64356.84055.84055,0,0,0,.88086.6289c.75585.126,1.88867,1.88868,2.39257,1.88868,1.25977-.252,3.52539-.126,4.78321-.37793.12695,0,.5039-.252.5039-.126.377.37793.50391.126.75586-.126,0-.252.252.252.62891.37793a10.43071,10.43071,0,0,1,3.52539-1.00683c1.38476-.252,2.64258-1.51075,4.40625-1.38477a1.34673,1.34673,0,0,0,.75391-.25195c.75585-.252,2.14062-1.13281,2.76953-1.00684h.63086c.7539-1.00781,1.63476,0,2.26562.251a.44086.44086,0,0,1,.125.25195l-.125.126a39.82645,39.82645,0,0,0-4.6582,2.01465,5.42231,5.42231,0,0,1-1.63672.6289H598.095c-.88086,1.25879-9.18946,2.89551-9.56641,2.76953-.12695,0-.50391.126-.50391.252-1.51172.6289-4.40625-.252-5.916.25195-.63086.252-.50391.126-1.38477.126-.252,0-.3789.50293-.3789.75488a7.47515,7.47515,0,0,1-.75391,1.7627c-.37891.37695-1.13477.6289-.37891,1.25878a11.61791,11.61791,0,0,1-1.25781,1.63672c-.88281,1.00684-.63086,1.25879-1.38476,2.13965l-1.25977,1.63672c-.37695.50293-.25195.88086-.62891,1.13281-.25195.126-.6289,0-.75586.126-2.01367,2.01367-1.76171,1.13281-2.39062,1.38477-.88281.37792-.75586.88085-1.51172.6289A7.45994,7.45994,0,0,1,564.35868,129.984Zm4.40625-1.76269a10.67723,10.67723,0,0,0,1.50976-1.00684l2.39258-1.88867a.46277.46277,0,0,0,.37695-.126,9.8345,9.8345,0,0,1,1.88868-2.76953,12.68814,12.68814,0,0,0,1.25781-2.64355c.252-.50293.252-.75489-.25195-.75489a7.66212,7.66212,0,0,1-3.77539-.5039c-.127-.126-.37891-.252-.37891-.377-1.13281-.75585-1.13281-.62988-1.76172.377-.88086.126-1.50977.126-1.13281,1.00683,0,.126.125.252,0,.50391l-.125.252h-.127v.252c0,.126,0,.50293-.25195.50293-.6289,0-.5039.75586-.75586,1.13281a17.34436,17.34436,0,0,1-.7539,2.39258c-.37891.88086.5039,1.63672.37695,2.13965C567.12821,127.96932,568.00907,128.47323,568.76493,128.22128Zm8.81054-12.46289a.27016.27016,0,0,0,.252-.252v-.6289a5.0478,5.0478,0,0,0-2.89453-4.53223.95333.95333,0,0,1-.50391-.251c-.37695-.37793-2.51758,0-3.02148.125-.88086.37793-.62891,1.63672-1.13282,2.14063a1.77034,1.77034,0,0,0,.252.37793c.125.251.25195.37695.37695.37695,1.13281.126,3.14844.75586,3.39844,1.51074,0,.252.12695.62989.12695.88086a1.20581,1.20581,0,0,0,1.25781.37793l1.25977-.252C577.07157,115.75839,577.45047,115.75839,577.57547,115.75839Z"/><path class="cls-2" d="M639.136,115.63241c-.3789-.251-1.00781-.62891-.252-1.38477.125-.126.252-.75488.7539-.88085a3.20752,3.20752,0,0,1,1.63672.75488,3.105,3.105,0,0,1,.252,2.64453c-.125.125-.125.125-.50391.125-.25195.126,0,.126.25195.37793.50391-.126.50391.50391.37891.75586a1.152,1.152,0,0,0-.25195,1.25879,2.69056,2.69056,0,0,1-.50391,1.51074,9.954,9.954,0,0,1-.62891,1.76172,14.36345,14.36345,0,0,1-1.25976,1.63672,40.64072,40.64072,0,0,1-3.02149,3.52441,4.50047,4.50047,0,0,1-1.76171,1.25879,8.89443,8.89443,0,0,0-1.13282.75586c-.6289,1.13281-2.01367,1.76269-3.27343,2.64355a21.77266,21.77266,0,0,1-3.39844.50391c-.37891,0-1.00781.125-1.63672.125a2.21645,2.21645,0,0,0-.75586.126,21.76133,21.76133,0,0,1-3.77539-2.01367c-1.00781-.75586-1.38477-1.88868-2.39258-2.51758-.125-1.00782-.75586-1.7627-.50391-2.89551a17.835,17.835,0,0,1,.252-2.26563,2.15618,2.15618,0,0,1,.25195-.62988c-.125-.126-.125-.25195-.25195-.25195l-.62891.25195c.125.37793.125.62988.62891.62988-.50391.125-.75586.125-.75586.251-.88086,1.13379-1.88672,1.38477-2.76953,2.14063-1.00586.75488-1.88672,1.38476-2.89453,2.26562a30.90706,30.90706,0,0,1-4.65821,4.1543,10.61481,10.61481,0,0,1-5.16015,2.01465,6.6974,6.6974,0,0,1-1.76368-.126,4.48751,4.48751,0,0,1-2.51757-1.88867c-.377-.252-.377-.252-.377-.37793-1.00781-.126-.88086-1.51074-1.25976-2.01367a.81426.81426,0,0,0-.252-.62989c.252-.25195.50391-.75488.37891-1.00683,0-.50391-.37891-.62989-.12695-1.00684a3.07673,3.07673,0,0,0,.5039-1.38476,12.29551,12.29551,0,0,1,1.00782-2.26661,18.08208,18.08208,0,0,0,1.63672-4.02832c.7539-1.00683,1.38476-2.76855,2.13867-3.77636a18.33142,18.33142,0,0,1,1.51172-3.14649c.25195-.75586.88086-1.25879,1.00586-1.88867a50.02025,50.02025,0,0,1,3.40039-6.29394c.25195,0,.25195-.126.25195-.126,1.13281-1.38477,1.13281-1.38477,2.89453-1.13281a3.73075,3.73075,0,0,0,1.13281.37695c1.13282.50391,1.76172,1.76269,1.25977,2.51758-.12695.126-.12695.37793-.37891.37793-1.00586.37793-1.50976,1.25879-2.39062,1.76269-.127.252-.37891.50391-.252.75489a1.61606,1.61606,0,0,1-.63086,1.76269c-.88085,1.25879-1.38476,2.51758-2.39062,3.90234,0,.37793-.75586.75586-.12695,1.51075,0,.126-.502.62988-.502.75488-1.25976,1.38476-1.51172,3.02148-2.64453,4.40625-.377.75586-1.13281,1.51074-1.25781,2.14062,0,.50293-.37891.62891-.75586.88086a8.40829,8.40829,0,0,0-.62891,2.39161c-.5039,1.38476-1.25976,2.8955-.88281,4.28027v.6289h.37891a5.60059,5.60059,0,0,1,2.64258-1.25878c.75586-.251,1.13281-1.00684,1.76367-1.25879a5.35345,5.35345,0,0,1,1.76172-1.38477c.125,0,.6289-.126.6289-.251a2.673,2.673,0,0,0,1.13282-1.25878c.63085-.50391,1.25976-.126,1.63671-.62989a6.63467,6.63467,0,0,1,1.38477-1.88867c.25195-.37695.37695-.50293.75586-.50293.75586-.126,1.13281-.75586,1.50976-1.00781l2.14063-2.01367c.75586-.88086,1.38477-1.25879,2.01367-2.13965a10.318,10.318,0,0,0,1.63672-.88184c.50391-.126.50391-.6289,1.13281-.75488.127.126.127-.252.127-.50391,0-.126-.127-.6289.25195-.6289.75391,0,1.00586-.50391,1.50976-1.13379l1.63672-1.25879c.252-.125.377-.251.62891-.125a8.32583,8.32583,0,0,0,1.76367-.126s.25-.126.37695,0c.377.377.377.50293.75586.62891.75391.252.502.75586.25,1.25879-.125.88183,0,1.88867-1.38281,2.3916-.127.252,0,.37793-.252.50391-.12695,1.25878-1.13281,2.13964-1.51172,3.39941,0,.37695-.75586.50293-.62891.75488-.12695,1.38477-1.63672,2.13965-1.51172,3.77637.252.25195-.125.37793-.37695.62988-.252,1.25879,1.13281,3.27246,2.64453,4.02832a1.7092,1.7092,0,0,0,.88086,0,.56294.56294,0,0,1,.377-.5039c1.76171,0,2.76953-1.00684,4.15429-1.7627l.252-.126c2.01367-1.88769,4.15429-3.39843,5.791-5.53808a36.51257,36.51257,0,0,0,2.51758-4.91016,1.25353,1.25353,0,0,0-.12695-.377c0-.50391.5039-1.13379,1.13476-.88184Z"/><path class="cls-2" d="M661.54422,125.7037c-.12695-.62988-.75585-.75586-1.00781-.25195-.75586,1.25879-2.14062,1.88867-2.89648,3.14746l-.377.37695-.75585.37793c-.252.126-.502.75586-.88086,1.13281-.125.126-.75586.126-1.25782.37793-.12695.37793-.75586.50391-1.13281.50391-.50391,0-.63086.251-.63086.6289.12695.252-.125.37793-.502.37793-1.63672,0-3.40039.50391-4.5332-1.13281a8.65492,8.65492,0,0,1-2.01368-2.64355,5.35338,5.35338,0,0,1,0-2.01465c0-.75488.50391-1.13281.377-1.63672a2.54564,2.54564,0,0,1,.12695-.62891,8.94473,8.94473,0,0,0,1.00586-2.26562,4.64757,4.64757,0,0,1,2.26758-2.64356,2.57922,2.57922,0,0,1,.6289-2.14062,46.2631,46.2631,0,0,1,3.90235-4.7832l2.76953-2.51758c1.00586-.88184,3.14648-.88184,4.2793-.75586,1.88867.25195,3.02148,1.76269,4.5332,2.51758.125,0,.125.252.377.252,1.38477.50391,1.63672,1.88867,2.14063,2.76953a2.54575,2.54575,0,0,0-.127.62988c-.125.125-.37695.251,0,.50293.127,1.13282-.125,1.88868-1.13281,2.01465-.37695,0-.37695,0-.50391.88086v.126a6.7009,6.7009,0,0,0-.7539,1.76269,2.69838,2.69838,0,0,0-.12695,2.3916l-.252.62891,1.00781,2.14063,1.50977.6289,2.89648.252,2.01368-.62891,1.76172-1.25879,2.01562-1.13379,2.01367-1.88769,1.38477-1.51075,1.50976-2.13965,1.88868-2.39257,1.25976-2.01368,1.50977-2.01464,1.63672-2.13965,1.63671-1.38477,1.38477-2.01465,2.13867-1.76171,1.88867-1.38477,1.88868-1.13281,1.88867-.62989c.125,0,.25195-.126.37695-.126,1.00781-.252,3.39844,1.00683,3.27344,6.29394a2.64247,2.64247,0,0,0-.252.75586l-.6289,1.63672c-.50391.50293-.50391,1.13281-1.13281,2.01367-.37891.252-.50391.62989-.37891,1.51075a8.08861,8.08861,0,0,1-1.76172,2.8955l.125.37793c-.125.377,0,.62891-.25.88086a16.10164,16.10164,0,0,0-.75586,1.51074,4.76294,4.76294,0,0,1-1.25976,2.51758c-.125.126-.125.37793-.125.75489.125.126-.127.37792-.252.5039a.93811.93811,0,0,1-.12695.62988c0,.125-.125.125,0,.251a9.00877,9.00877,0,0,0-.88086,2.01465l-.50195.88086,1.00586-.75488a2.84483,2.84483,0,0,0,1.25976-1.13282l1.25781-.88183c.50391-.252,2.01368-1.25879,2.14063-2.01367l-.12695.126c.12695-.37793.3789-.5039,1.00781-.75586a4.32452,4.32452,0,0,0,1.51172-1.51074c.88086-.377,1.76172-1.63574,2.64258-1.76172a7.14353,7.14353,0,0,1,1.88867-1.51074l1.38476-1.25879,1.13282-.126c.125-.126.25195-.126.5039-.126s.62891-.126.50391-.75586a4.79217,4.79217,0,0,1,1.63476-1.00684l.75586-.6289-.125.252,1.25782-.37793.75586-.75586a.95051.95051,0,0,1-.50391.126h-.25195c.3789-.126.88086-.252.88086-.252l.3789-.6289a.9739.9739,0,0,0,.37695-.126l3.02149-.75488a4.90959,4.90959,0,0,1,1.88867.251,14.21471,14.21471,0,0,1,2.76953,1.25879c0,.126,0,.126.125.126.252.37793.75586.50391.50391.75586a.46511.46511,0,0,0,.125.37793c.3789.62891.88281,1.50976.5039,1.76172l-.6289.88183c.125.125,0,.251-.25195.50293-.125.75586-.50391,1.63672-.50391,2.14063l-.50391.75488a4.32152,4.32152,0,0,1-2.13867.126c-.25195-.37793-.25195-.75489-.50391-1.00684a2.26969,2.26969,0,0,0,.252-1.25879,3.22467,3.22467,0,0,1,.6289-1.51074,4.154,4.154,0,0,1,0-1.25879v-.88183h-.75586l.127-.126-.75586.37793c.127,0,0,.126,0,.126h-.125l.125-.126-1.00586.75586-1.38477.6289-.88281.37793c-1.25781.62891-2.13867.75489-3.27148,2.01368a4.80722,4.80722,0,0,0-2.51758,1.88867,25.26553,25.26553,0,0,1-2.39258,1.51074l-.50391.50293-1.76171,1.00781a2.85987,2.85987,0,0,0,.125.50293l-.125-.126c-.127.37792-.252.5039-.75586.75585a1.23644,1.23644,0,0,0-1.25977.75489l-.125.37793-3.77734,2.8955-.502.50293v.50391l-1.13281,1.00684-1.00781.5039-.75586,1.00684-.88086,1.00683-.25195.37793-.62891.62989c-.12695.37695-.12695.50293-1.25977.88086l-.7539,1.13281a1.33889,1.33889,0,0,1-1.76367-.126l-.252-.251c-.125,0-.25195.125-.7539.50293a7.13332,7.13332,0,0,1-1.51172-1.38477c0-.126-.125-.126-.125-.25195a1.49807,1.49807,0,0,1-.25195-1.63575l1.76171-5.1621a5.38542,5.38542,0,0,0,1.38477-2.64356,25.42423,25.42423,0,0,0,1.38477-4.02832l1.25976-2.13965c0-.126.125-.5039.125-.75488a3.75086,3.75086,0,0,1,.25195-1.25977c.127-.125.252-.251.252-.37695l.88086-1.13281a3.0993,3.0993,0,0,0,.12695-1.51074,1.08728,1.08728,0,0,1,.37695-.75586c1.00782-.88086,1.25782-2.51758,1.50977-3.65039a1.8341,1.8341,0,0,1,.63086-1.51075l.125-.126c.12695-.252,0-.50293-.252-.50293v-.126l-2.39062,1.25879-2.14063,1.38477-.88085,1.13281-1.51172,1.51074-1.88868,2.13965L686.972,115.0035l-1.25781,1.51075-1.38477,2.26562-1.51172,2.01465-1.50976,1.63574-2.14063,2.14063-1.88867,2.01367-1.88867,1.51074-2.13867,1.51074-2.01563.62891-2.39062-.125-2.64454-.37793-1.88867-1.00684-1.63476-1.00781-1.00782-1.76172Zm1.13282-12.58887c-.50391-.50293-1.13282-.88086-1.76367-.50293-.377.50293-1.63672-.126-1.88868,1.13281-.7539,0-1.38476.75489-1.76172,1.25879-.5039.50293-1.00781,1.13282-1.38476,1.13282-.75586,0-.88086.126-.88086.5039a2.62731,2.62731,0,0,1-1.00781,1.63574c-.62891.252-.62891.50391-.75391,1.13379l-1.13281,1.8877a26.50869,26.50869,0,0,0-2.76953,7.0498.58625.58625,0,0,0,.6289.62891c.252,0,.377-.37695.50391-.37695,1.50977-1.13282,3.39844-1.63672,4.65625-2.76953l.75586-.37793h.127c-.127-.50391,0-.88086.62891-.88086.125,0,.5039,0,.5039-.126a1.20662,1.20662,0,0,1,1.13282-1.00684c.5039-.126.6289-.62988.7539-1.00781q0-.56543.75586-.75488c.127,0,.252-.37793.62891-.50391a3.84,3.84,0,0,0,.252-1.00683c.252-.37793.88281-1.13282.63086-1.38477-.127-1.38476.75391-2.13965.88086-3.14746l.62891-2.3916A.12309.12309,0,0,0,662.677,113.11483Zm49.47265-.75488q-.19043,0,.75391-.37793l-.25195.25195A.94471.94471,0,0,1,712.14969,112.36Zm1.25782-.62988a.9484.9484,0,0,1-.50391.252C712.9036,111.856,713.15555,111.856,713.40751,111.73007Z"/><path class="cls-2" d="M748.78446,115.63241v-.126a3.94677,3.94677,0,0,1-1.00781,1.38477c-2.76953,3.77734-1.38477,11.96,2.51757,15.23242,6.67188,5.16113,21.2754-6.042,24.54688-9.69336,3.02148-3.52441,5.53906-9.4414,6.42187-9.31543.88086.126-3.27343,8.05664-3.40039,8.05664-11.832,17.49805-24.16992,15.61035-28.70117,13.97364-4.15429-1.51075-6.79687-3.39942-7.93164-10.19727l-.25-.125a21.37767,21.37767,0,0,1-4.6582,3.90234l-.37891.377-.7539.37793a8.757,8.757,0,0,1-.75586,1.13281c-.125.126-.75586.126-1.25977.37793-.125.37793-.75391.5039-1.13281.5039-.50195,0-.62891.251-.62891.62891.252.126,0,.126-.377.126-1.63672,0-3.39844.5039-4.6582-.88086a11.57213,11.57213,0,0,1-2.14063-2.64356,6.6529,6.6529,0,0,1-.25195-2.01464c0-.75489.5039-1.13282.3789-1.63672a2.57974,2.57974,0,0,1,.125-.62891,16.67565,16.67565,0,0,0,.88086-2.2666,3.84938,3.84938,0,0,1,2.01563-2.64356,2.52742,2.52742,0,0,1,.502-2.13964c1.13281-1.63672,2.26758-3.27344,3.52539-4.78321l2.76953-2.51758c.88086-.88183,3.02149-.88183,4.1543-.75586,1.88867.252,3.14648,1.88868,4.6582,2.51758.125,0,.125.252.377.252,0,.126.12695.126.25195.126v-.126a16.24063,16.24063,0,0,1,1.38477-3.77637c0-2.14063.88085-3.65039,1.38476-5.53906.62891-1.13282.62891-2.26563,1.13281-3.39942.377-.6289.50391-1.50976,1.13282-1.88769,1.63671-.37793,1.00781-2.26563,1.76367-3.90235a14.95481,14.95481,0,0,1,2.01367-4.53222c.62891-1.8877.50391-3.90235,1.38477-5.791l2.76953-6.168c.37695-1.38476,1.76172-2.26562,1.63672-4.02832,2.13867-2.26562,2.64257-5.53906,4.27929-7.80469l2.14063-4.6582s0-.126.25195-.126a30.85992,30.85992,0,0,0,3.65039-7.67871c1.63672-2.3916,3.90234-4.15429,4.6582-6.67187.75391-1.00684,1.63477-2.26563,2.39063-3.14746a5.27764,5.27764,0,0,0,1.38476-2.01367,6.99951,6.99951,0,0,1,1.38477-2.13965l4.28125-5.03614a7.80037,7.80037,0,0,0,1.00586-1.51074,1.01288,1.01288,0,0,0,1.63672-.377c1.88867-2.01465,4.53125-2.76953,7.30078-3.02148.88086-.252,1.51172-.252,1.88867.5039l1.00781.88086a3.75422,3.75422,0,0,1,2.51758,3.39844c.50391,2.01465,1.13281,4.40625.50391,6.54687l-.37891,1.76172a10.77956,10.77956,0,0,0-1.25781-.88086,13.66784,13.66784,0,0,0,.37695,2.3916c0,.37793-.37695.50391-.75586.75586-.25195.251-.7539.62891-.7539,1.13282a2.75222,2.75222,0,0,1-1.25977,3.27246,2.04411,2.04411,0,0,1-1.13281,2.76953c-.62891.252-.75586.75586-.75586,1.51074a11.154,11.154,0,0,1-2.64258,4.1543c0,.126-.6289.126-.88086.126.252,3.02149-1.51172,5.16114-3.52539,5.53907a6.67962,6.67962,0,0,1-2.51758,6.042,15.22992,15.22992,0,0,0-2.76953,4.02832c-.252.50391-.88086.75586-1.25976,1.51074,0,.75586-.125,1.38477-1.38477,1.88867-.50195,0-.25195.75489-.50195,1.51075-.127.75488-.75586,1.00683-1.38477,1.38476a26.58349,26.58349,0,0,0-3.27344,3.27246,5.25241,5.25241,0,0,1,.252.88086L770.6868,85.4205c-1.13281,1.76269-2.64258,3.02148-3.65039,5.28711a5.85117,5.85117,0,0,1-.7539,1.13281c-.37891.126-.50391.62988-.88282.88086a3.1697,3.1697,0,0,1-1.13281,2.51855c-.88086,0-.88086,1.25879-1.50976,1.8877-1.88868,1.63672-3.02149,4.28027-4.91016,6.41992l-1.63672,2.01465a2.5707,2.5707,0,0,0-1.00586,1.88769c0,.252-.50391.252-.75586.50391a.93513.93513,0,0,1-.377.37793c0,1.63672-.88281,2.13965-1.76367,2.76953l-1.13282,1.63672a18.06316,18.06316,0,0,0-1.38476,1.50976l-.37695.75586Zm-8.30859-2.13965a.12368.12368,0,0,0-.127-.126c-.6289-.62891-1.25781-1.00684-1.88867-.62891-.25.50293-1.63477-.126-1.76172,1.13281-.75586,0-1.25781.75488-1.63672,1.25879-.37695.50293-.88086,1.13281-1.25781,1.13281-.75586,0-.88086.126-.88086.50391a3.29079,3.29079,0,0,1-.88281,1.63574c-.62891.252-.62891.50391-.75391,1.13281l-.88281,1.88868a19.50864,19.50864,0,0,0-2.39063,7.0498.58625.58625,0,0,0,.62891.62891c.25195,0,.37695-.377.50391-.377,1.38476-1.13379,3.27343-1.63672,4.40625-2.76953l.75586-.37793h.125c-.125-.5039,0-.88086.6289-.88086.127,0,.50391,0,.50391-.126,0-.62989.377-.88184,1.00781-1.00782.50195-.125,1.38477-.6289,1.50977-1.00683q0-.5669.75586-.75488a7.365,7.365,0,0,0,1.00586-.50391c0-.50293.12695-.62891.12695-1.00684.252-.37793.75586-1.00683.50391-1.25879-.252-1.51074,1.38476-2.14062,1.38476-3.14746l-.25195-2.26562Zm-5.791,14.98047c0,.126-.12695.126-.37695.25195.25,0,.25.377.37695.377a.46116.46116,0,0,1,.50391-.50293A.75741.75741,0,0,0,734.68485,128.47323Zm38.89844-53.627a3.78928,3.78928,0,0,0,2.14062-2.89551,3.26033,3.26033,0,0,1,1.50977-2.13965,2.51842,2.51842,0,0,0,2.14062-2.76953,10.15605,10.15605,0,0,1,2.89453-5.791l.50391-1.00683c.75586-1.25879,1.13281-3.02149,2.26563-4.6582.5039,0,.75585.126,1.25976.126a2.14039,2.14039,0,0,0-.50391-1.63672c.50391-.50293,1.25782-.50293,1.25782-1.00683.25195-.37793.3789-1.00684.75586-1.63672,1.51172-3.65039,2.51757-7.80469,4.7832-10.95215.37891-1.63574,0-3.14648,1.00781-4.53125a1.565,1.565,0,0,0-.127-2.14063,1.59077,1.59077,0,0,0-1.76172-.252,2.03222,2.03222,0,0,1-2.64258.88184,3.10079,3.10079,0,0,0-1.13281.50293c-.63086,1.38476-2.14063.88183-2.39258,3.02148a.67827.67827,0,0,1-.377.50391,1.26837,1.26837,0,0,0-1.38477,1.25879,2.112,2.112,0,0,1-.3789.75488c-1.76172,1.51074-3.90235,3.14746-4.53125,5.917l-3.14649,4.40625c-.5039,1.51074-2.64453,1.8877-2.51758,4.1543-1.00781.377-1.51171,2.01367-1.88867,3.02051-.5039.5039-.63086,1.51074-1.38476,2.14062a7.03285,7.03285,0,0,0-1.63672,2.01367c-.75586,1.38477-.75586,3.77637-2.26563,4.78418-.12695,1.76172-2.51758,2.89551-1.63672,5.03516a2.74975,2.74975,0,0,1-.6289,1.00684c-1.13477.5039-.88281,1.13281-1.13477,2.3916-2.26562,3.39941-4.27929,6.79785-5.03515,11.2041-.75391,2.26562-2.39063,4.02832-3.90235,6.29394,1.25977,1.51075.50391,2.26661-.125,3.14746a6.03719,6.03719,0,0,1-.6289,2.76954c-.75586.75488-.75586,1.51074-1.25977,2.26562.12695,1.38477-3.77734,8.18262-3.52539,9.81934,1.00781-1.38477,5.41406-7.42774,6.41992-8.3086,1.25977-2.51757,2.89649-3.90234,4.0293-6.042.75586-1.88867,2.89453-2.14062,2.89453-4.91016.12695-.126.63086-.88085,1.25977-.88085.125-.252.75585-.252.75585-.50391.125-1.8877.88086-3.39844,2.39063-3.90234.25195-1.76172,1.88867-2.01368,2.26562-3.52442,1.25977.252,1.00782-.5039,4.1543-6.043C772.95438,76.231,773.07938,74.97225,773.58329,74.84628Z"/><path class="cls-2" d="M858.4329,110.3453l.12695-.251c-.63086-.62988-.12695-.88183,1.13281-.88183,0,0,.125,0,.252.25195v-.75488l1.63671-1.00781.88086-.377,1.25782.125.12695-.50293a3.90528,3.90528,0,0,1,1.13281-.88183c.125-.125.50391,0,.88086.252-.37695-.62891-.25195-1.00684.37695-1.38477a2.146,2.146,0,0,1,1.25977-.75488,8.80319,8.80319,0,0,0,2.64258-1.38476,1.9543,1.9543,0,0,1,1.25976-.88086l.88086-1.13379a1.345,1.345,0,0,1,1.00782-.75488l.25195-.126.88086-.88086c.125-.75586.7539-1.13281,1.25781-1.51074l.88086-.88086a7.12656,7.12656,0,0,1,1.63672-1.38477,3.80131,3.80131,0,0,1,1.00781-1.00781l.50391-.62891a12.02484,12.02484,0,0,1,2.51758-1.76269c-.127,0-.252-.126-.252-.37793a2.53993,2.53993,0,0,1,.88086-1.13281c.75586-.50293,1.38477-.88086,1.51172-1.76172-.12695-.252.25-.88184.37695-1.25977,1.38477-1.38379,2.01368-3.77637,3.02149-6.29394,1.25781-.252,1.13281-1.00684,1.13281-1.7627.125-.251.125-.88086.25195-1.25879v-.6289a2.72227,2.72227,0,0,0,.62891-2.76954V73.58749l-.25195-.37793V71.06991l-.88086-1.25879c-.75586-1.51074-1.25977-2.64453-2.14063-3.02148l-.5039-.88184a11.41226,11.41226,0,0,0-2.01368-1.38476,6.38967,6.38967,0,0,0-3.65039-1.25879,10.02392,10.02392,0,0,0-1.63672-.50293c-.5039,0-.75585-.252-1.50976-.252l-.63086-.126a1.86633,1.86633,0,0,1-1.13281.252c-.62891,0-.88086,0-1.13282-.252-.25195,0-.37695-.126-.6289-.252l-3.52539.37793-1.63672.252-1.00586-.126a6.39449,6.39449,0,0,0-3.02148.50293c-.252,0-.75586.126-1.00782.126h-.88086a10.60173,10.60173,0,0,0-1.50976.5039l-3.90235,1.25879c-1.88867.50391-3.52539,1.13281-5.41406,1.7627l-1.25781.37695-1.51172.62988a17.05592,17.05592,0,0,0-4.6582,1.7627l-1.63477.75488a6.98411,6.98411,0,0,0-2.14062.75586l-1.63672.88086-1.00781.62891-1.50977.88183a2.18788,2.18788,0,0,1-1.38477.75488c-.37695.126-.6289.37793-.88086,1.13282a1.613,1.613,0,0,0-1.76367.37793c-.125.25195-.7539.5039-1.00586.75586l.125-.252-1.13281,1.00684-1.50976,1.00683-.75586.37793a.469.469,0,0,1-.50391.37793,4.52863,4.52863,0,0,1-.88086.377c-.37695.126-.37695.126-.37695.252a2.96157,2.96157,0,0,1-1.25977,1.00684c-.125,0-.252,0-.252.126l-1.50977,1.38477c-1.38476.88183-1.38476.88183-1.88867,1.63672-.75586.5039-1.13281,1.00683-1.50976,1.00683l-1.25977.75586a7.55715,7.55715,0,0,1-.75586.50293,8.59633,8.59633,0,0,0-3.27148,2.76953l-1.13477.62989.12695-.126c-.37695.25195-.6289.75488-1.25976,1.25879l-.62891.75488a28.782,28.782,0,0,0-5.66406,5.41309,9.787,9.787,0,0,0-2.14063,3.52539c0,.126-.37695.25195-.37695.37793a1.33189,1.33189,0,0,0,.37695,1.63574,1.8467,1.8467,0,0,0,.252.50391c.125,0,.37695.252.6289.252,1.25977-.50391,1.51172-.50391,2.26563.88086,1.00781,1.88867.5039,2.64355-1.50977,3.39941a5.09531,5.09531,0,0,1-1.88867.125,2.79089,2.79089,0,0,0-1.13281.126,2.59941,2.59941,0,0,1-1.88867-1.8877,2.083,2.083,0,0,0-.62891-1.63671l-.50391-.37793a4.58274,4.58274,0,0,1-.125-4.90918c.252-.75586.62891-1.51075.377-2.01465.12695-.88086.6289-1.13281,1.00781-1.13281a15.352,15.352,0,0,1,1.00586-1.51075c.127-.6289.37891-1.25879,1.63672-1.38476a20.03322,20.03322,0,0,0,1.63672-1.63574,1.10465,1.10465,0,0,1,.5039-.75586l1.63672-1.63672,2.39063-2.13965a26.85433,26.85433,0,0,0,5.791-4.53223,13.9897,13.9897,0,0,0,1.88867-1.38476c.377-.377.75586-.50293,1.00782-.75489l.88086-.75488,1.88867-.75586,1.25781-1.00683c.88086-.50391,2.76953-1.25879,2.26563-1.51075,1.00781-.5039,2.01562-1.38476,3.27343-1.88867l1.51172-.50293A23.57136,23.57136,0,0,1,834.263,70.44h-.125l2.64258-1.13282.50391-.126c.75586-.126,1.51172-.75488,2.26562-.62988a.123.123,0,0,0,.127-.125,6.05409,6.05409,0,0,1,2.13867-1.51075,1.80539,1.80539,0,0,0,.88281-.252l-.252.252c1.38476-.88183,2.26562-1.13379,3.02148-1.63672l2.13867-.75585c.127,0,.50391-.251.63086-.251.377-.126.75391-.126,1.63477.377,0,.126.25195-.251.37891-.377.25195-.88184.5039-1.13379,1.50976-1.38477a11.02956,11.02956,0,0,0,4.7832-1.76269c.88282-.252.88282-.252,1.25977,0a2.99576,2.99576,0,0,1,2.26563-.62989,3.7399,3.7399,0,0,0,1.76171-.6289l1.38477.126a3.8166,3.8166,0,0,1,3.02148-.75586,4.72929,4.72929,0,0,0,1.25977-.126l2.76953-.125a11.218,11.218,0,0,0,2.89453,0,3.35853,3.35853,0,0,0,1.13281-.252H875.679a5.19113,5.19113,0,0,1,1.51172-.126c.62891.252,1.00586.62891,1.38476,0,0,0,1.00586.126,1.13282.75488a1.27809,1.27809,0,0,0,1.25781.62989h1.25977a1.44038,1.44038,0,0,1,.75585.37792c.125,0,.502.50293.62891.50293a7.87684,7.87684,0,0,1,2.89453,1.25879l1.13281.62989a2.34083,2.34083,0,0,1,.75586.88086l.50391.37793.25195.75488c.50391.25195,1.00586.37793,1.00586.75586a15.1368,15.1368,0,0,0,1.00782,2.01367l.6289.88184c.50391.251.75586,1.13281.75586,2.01367-.125.37793.125.62988.25195.88086l.75586,1.63672v1.00683a10.93123,10.93123,0,0,1,.252,1.25879c0,.126.125.75586.125,1.25977a11.09048,11.09048,0,0,0-.75586,4.53125l-.75391,1.00683-.63086.50391a2.71347,2.71347,0,0,1-.5039,2.01465l-.62891,1.00683a.56448.56448,0,0,0,0,.62891,8.414,8.414,0,0,1-2.01367,3.65137l-2.76953,3.90234.125-.126a3.173,3.173,0,0,1-1.25782,1.51075l-.25195.37695c-.25195.37793-.25195.5039-1.00781.75586v.50293a18.49183,18.49183,0,0,1-3.14649,3.14746l-2.89453,2.3916a3.75915,3.75915,0,0,1-1.76367,1.25879.12273.12273,0,0,1-.125-.126c0,1.13379-.25195,1.13379-1.13281,1.13379a.124.124,0,0,1-.127-.126,2.43669,2.43669,0,0,1-1.00585,1.38476l-.252.62891a1.42623,1.42623,0,0,1-1.13281.88183c-.50391-.126-1.13281.50293-1.25977.75489,0,0-1.13281.62988-1.88867,1.00683l-.88086.50391h-.25195c-.25195,1.38476-1.00586,1.25879-1.88867,1.51074l-.88086.252h.127c-.252.125-.5039.125-.75586.50293a1.79263,1.79263,0,0,1-2.14062.62989l-.252.126c-.88086.88086-1.50976,1.25879-2.39062,1.13281.252.252.125.62891-.88086,1.00684v-.126l-.50391.50391a2.0071,2.0071,0,0,1-1.51172,1.13281c-.50195.88086-.6289.75489-.88085.37793-.252.62891-.88086.50293-1.38477.62891l.12695-.126-.75586.62989-.6289.50292c-.127,0-.37891.126-.50391.126a1.54983,1.54983,0,0,1-1.76172-.251,7.16572,7.16572,0,0,1-.75586,1.13282l-.3789-.37793c-.125.75488-.75391,1.25879-2.01368,1.25879a1.77394,1.77394,0,0,0-.7539.25195,6.09787,6.09787,0,0,1-2.14063,0c-.12695.50293-.25195.62891-.5039.62891-.252.25195-.50391.88183-1.00782.88183a2.7719,2.7719,0,0,0-1.76171.251l-.377.126a4.3288,4.3288,0,0,1-2.51758.62988,1.99364,1.99364,0,0,1-.88281,0,.94522.94522,0,0,0-.6289.126,2.28849,2.28849,0,0,1-1.38477.37793l-.62891-.126a6.83511,6.83511,0,0,1-3.90234-.252c0-.126-.25195-.37793-.25195,0a4.983,4.983,0,0,1-.75586,2.01368,1.17326,1.17326,0,0,0,.12695,1.25879l-.50391.75585c-.75585.37793-.88085.75489-.88085,1.8877-.50391,1.00781-.63086,2.14063-1.13282,3.14746a7.81434,7.81434,0,0,1-1.00781,3.02149,4.93332,4.93332,0,0,0-.37695,1.76269,4.71231,4.71231,0,0,1-.252,1.50977,8.94907,8.94907,0,0,1-.3789,2.8955c-.125,1.13282-.125,3.14747.75586,4.02832,0,.50391,0,.50391.37695.62989a3.92887,3.92887,0,0,1,1.25977.6289,2.99994,2.99994,0,0,0,1.76171.252,5.1252,5.1252,0,0,1,.252,1.25879,1.21022,1.21022,0,0,1-1.63672.75586,4.46881,4.46881,0,0,1-2.01367-.50391,11.192,11.192,0,0,0-1.38477-.25195c-.6289-.126-1.76172-2.01368-2.26562-3.02149l.25195.37793a8.11327,8.11327,0,0,1-1.00781-5.03516v-.88085l.12695.125c-.37891-.88086-.12695-1.00684,0-1.63575,0-.126.25195-.37793.25195-.5039a2.7487,2.7487,0,0,0-.12695-1.00684,2.30733,2.30733,0,0,1,.12695-2.01465v-.37695a2.13909,2.13909,0,0,1,.75391-1.13379v-.251a2.07176,2.07176,0,0,1,.25195-1.13379c.252-.251.127-.251.127-.6289,0-.252,0-1.13281.37695-1.38477l.127-.5039a9.37792,9.37792,0,0,1,.25-1.51075,1.97975,1.97975,0,0,0,.50391-1.63574,8.72865,8.72865,0,0,1,.252-1.63672,2.67182,2.67182,0,0,1,.37695-.88086c.252-.25195.252-.62988,0-.75586-.125,0-.37695-.126-.50195-.126l-1.51172-.50293c-.125,0-.25195-.126-.37695-.126-.88086-.126-1.25977-.62988-1.25977-1.63672,0,0-.25195.252-.6289-.126-.62891-.37793-1.38477-.62989-.62891-1.51075a5.12706,5.12706,0,0,1-.75586-3.39843,4.13115,4.13115,0,0,1,.62891-2.01465c.75586-.50293,1.63672-.88086,2.01562-1.63672l-.12695.126c.12695-1.00684,2.64453-.88086,3.02148.5039,0,.37793,0,.37793-.75585.88086a1.38758,1.38758,0,0,0,0,1.00684l-1.13282,1.00781c-.37695.37695-.5039.62891-.88086.62891l-.125.126c0,.126.125.37793.125.50391.377.126.377.62891.75586.75488l2.01367.50391,1.25977.37793.50195.88086c.252.25195-.125.37793.252.126,0-.126.25195-.25195.25195-.5039,0-.126.12695-.377.12695-.50293s.252-.50391.252-.62988c.25-.88086.50195-1.63672,1.38476-2.01368,0,0,0-.25195-.127-.25195v-1.13281l1.13281-1.63672a7.227,7.227,0,0,0,1.51172-2.76953l.25195-.75586a4.31451,4.31451,0,0,1,.125-1.25879,3.49356,3.49356,0,0,1,.62891-1.13281c.37891-.126.50391-.50293.88086-.75489.252-.62988,1.38476-2.14062.88281-1.63671-.50391-.62989,0-1.38477.25-1.88868.12695,0,.25195-.50293.25195-.75488a7.88363,7.88363,0,0,0,.37891-1.13281c.50391-.37793.50391-.37793,1.00586-.37793a3.38337,3.38337,0,0,1,.50391-2.13965c.25195-.25195.25195-.75586.6289-1.13281l.37891-.88184a.76068.76068,0,0,0,.125-.50293c.5039-1.00781.75586-2.39258,1.25976-3.52539.252-.37793.252-.50293.252-.6289l.5039-.75586a3.71034,3.71034,0,0,1,1.38282-1.76172c-.502-.50391,0-1.13379.3789-1.7627a3.81055,3.81055,0,0,0,1.00586-1.76269v.126c.12695-.25195.25195-.5039.37891-.5039a3.97855,3.97855,0,0,1,1.38476-2.3916c.125-.50293.62891-.75489,0-1.8877l.88086-.88184a3.56458,3.56458,0,0,1,.75586-1.13281,6.49753,6.49753,0,0,0,1.13281-2.51758c0-.126.125-.37793.125-.5039a.84938.84938,0,0,1,.37891-.75489c.50195-.37793.75391-1.25878,1.13281-1.88867a5.89509,5.89509,0,0,0,.62891-1.25879c0-.377.25195-.6289.75586-1.25879.88086-.6289,1.38476-.37695,2.26562.252l.377.62988c1.63672,1.50977,1.76367,3.65039.25195,5.03516a4.9963,4.9963,0,0,0-1.00781,2.01367l-.75391,1.25879c-.127,0-.252.252-.252.37793l-.88086,1.63672-1.38477,2.01367.125-.126-.75586,1.88867c0,.252-.37695.37793-.50195.50391a2.32207,2.32207,0,0,0-.50391,1.25879,5.15849,5.15849,0,0,1-1.38476,2.76953.95966.95966,0,0,1-.25195.50293l.125-.126a3.36241,3.36241,0,0,0-.502,2.14063,3.123,3.123,0,0,0-1.38476,2.01367,1.83143,1.83143,0,0,1-.252.88184l-.88281,1.51074a9.44253,9.44253,0,0,0-1.00586,1.76172l.125-.126a7.76191,7.76191,0,0,0-1.00586,3.02148,1.77715,1.77715,0,0,0-.25195.75586c0,.50293-.12695.88086-.37891.88086-.7539.62891-.88086,1.8877-1.25781,2.51758l-1.00781,2.51758a11.25094,11.25094,0,0,0-1.25781,2.89551l-1.13282,2.3916a8.81122,8.81122,0,0,1-.63086,1.63672c-.37695,0-.88086,1.00683-.88086.88086a6.03765,6.03765,0,0,1-.88085,1.88867l-.62891,1.13281v.37793c.252,0,.377-.126.62891-.126.75585-.25195,2.64453-.37793,2.01367-.37793a5.226,5.226,0,0,1,2.01562-.37793h1.00586c.12695,0,.50391,0,.62891-.125l1.00781-.37792h-.125a1.08448,1.08448,0,0,0,.37695-1.00684l1.00782.125a1.69739,1.69739,0,0,0,1.13281-.251c-.25195-.37793-.12695-.88183.502-1.00781a2.045,2.045,0,0,0,1.25977,0h1.00781c.125,0,.37695-.251.62891-.251s.37695-.126.6289-.126l1.25977-.75586a15.42941,15.42941,0,0,1,2.01367-.50293,4.88679,4.88679,0,0,1,1.88867-.252c.25195.126.50391.252.25195-.37792l1.76172-1.00684c.88086-.50391,2.01368-1.25879,2.76953-1.13281.125,0,.125.50293.125-.126a.82936.82936,0,0,1,.88282-1.13281C857.677,110.09432,858.18094,110.09432,858.4329,110.3453Zm-13.97266,7.30176h-.25195l.25195.126-.75586.126c.62891.62891.62891.62891.75586.62891Zm2.89453-.25195c-.125.126-.125,0-.125.126-.127.126-.127.50391-.127.50391h.252Zm4.6582-.88086-.25195-.252c0-.37793-.6289.37793-.6289.37793-.127,0,.25195.377.25195.377Zm3.77735-4.1543h-.50391l.377.75488c.25195-.126.3789-.37695.25195-.37695Zm.377.75488.25195.75586.75586-.5039h-.5039l.25195-.252Zm7.55274-5.03515v.252l-.125.37793c.125,0,.25195-.126.37695-.126A1.767,1.767,0,0,0,863.72,108.07968Z"/><path class="cls-2" d="M911.18094,120.41659l-.12695-.25195c0,.25195-.62891.62988-1.13281.75488l.12695.126-.88086.88183-.75586,1.13281-.5039.126a1.01683,1.01683,0,0,0-.75586.62891c0,.126-.502.75586-.88086.75586l-.50391.25195c-.125.251-.37695-.88184-.75391-.75586l.125.25195c0,.37793.127.62891-.25195.75489h-.125a5.9533,5.9533,0,0,1-.6289.252l-.252.50391c0,.37793-1.76367,1.00683-1.76367,1.13281-.25195.75488-1.38477.88086-2.39062.75488-.37891-.126-.50391-.251-.37891.50391,0,0,.127.5039-.125.5039a3.649,3.649,0,0,1-1.38477.377l-1.13281.62988c-.12695,0-.25195.126-.37891.126,0,.126-.25,0-.50195.126,0,.126-.3789.251-.5039.251.125.62988-.37891.88184-.88086.88184h-.252l-.88086.37792c-.25195,0-.5039-.126-.75586.251v-.126c-.12695.37793-.6289.252-1.00781.252a2.71842,2.71842,0,0,1-1.38476.126,5.85053,5.85053,0,0,1-4.2793-.6289,1.80966,1.80966,0,0,1-1.63672-.50391l-1.50977-1.13281c-.12695-.25195-.5039-.37793-.75585-.88086a3.47252,3.47252,0,0,1-1.13282-1.7627l-.63086-.5039a3.86449,3.86449,0,0,1-.6289-1.13281,17.42872,17.42872,0,0,1-.377-3.77637c-.12695-.88086-.6289-1.63672,1.00586-3.27344,1.00782-1.13281.88282-1.13281,1.00782-1.51074v.126c.75586-1.76172.5039-.75489.75586-1.13282l1.76171-2.01367,1.25977-1.25879c.125,0,.25195,0,.25195-.252a1.48287,1.48287,0,0,0,.75391-.62988,2.36242,2.36242,0,0,1,1.38476-.62891,2.36961,2.36961,0,0,0,1.00782-.25195l1.00781-.37793.50195.126c.88282.126,1.76367.126,2.14063,1.13282.12695,0,.25195.126.37695.252.12695.126.25195.25195.37891.25195a3.56029,3.56029,0,0,1,2.01367,3.65039c-.125,0-.125.252-.125.252-.37891-.126-.63086.126-.12695.5039l-.252.75489a1.69692,1.69692,0,0,0-1.13281,1.13281l-.62891.37793-.5039.6289a2.93759,2.93759,0,0,1-1.50977,1.25977,3.88192,3.88192,0,0,1-1.13281,1.76172l-.37891.37793a7.0835,7.0835,0,0,1-2.26562.88086c-.25195.252-.88086.252-1.25781.252l-1.88868.25195c-.75586-.126-1.13281.37793-.88086.75489,0,.62988.125,1.13379.75391,1.38476a5.64744,5.64744,0,0,0,3.39844,2.01465,16.5127,16.5127,0,0,0,6.29492-1.38477l.88086-.25195a15.56074,15.56074,0,0,0,2.51758-1.25879l1.00781-.25195a2.84374,2.84374,0,0,1,1.38477-.62891c.25195,0,2.01367.126,1.63671-.37793l.75586-.75586c.125-.37695.502-.50293,1.13282-.50293.50195-.126.88086-.252,1.00586-.75585l1.88867-1.25879c1.00781-.62891,1.13281-.88086,2.01367-1.51075l1.51172-1.00683a1.2064,1.2064,0,0,1,1.13281-.62891c1.88867.62891,1.76172-2.51758,3.52539-2.51758,1.38477-1.25976,4.02735-3.65136,4.2793-2.2666-.88086,1.7627-3.90235,4.65821-5.53906,5.917A3.08038,3.08038,0,0,1,911.18094,120.41659Zm-20.01562-6.29492-.12695-.125-1.25782.50293c0,.5039-.37695.5039-.6289.37793h-.252l-.63086.252c-.6289.37695-1.13281.126-1.38476.88086,0,0-.37695.25195-.62891.37793-1.50976.62891-1.38476,1.76269-2.01367,2.01367-.62891.50391-.62891,1.7627-.125,1.63672l.50195-.126a11.8766,11.8766,0,0,0,2.14063-1.13281l3.02148-2.76953.62891-.75488.88086-.88184A.39159.39159,0,0,0,891.16532,114.12167Z"/><path class="cls-2" d="M930.31571,117.899c-.37695,0-.37695,0-.50391.88086v.126a6.7009,6.7009,0,0,0-.7539,1.76269,3.44087,3.44087,0,0,0-.252,2.89453c.62891,1.00782.62891,2.51856,1.76172,3.14747-.125.75585.75586.75585.88086,1.13281.50391.5039.75586.5039,1.25977,0,.25195,0,.37695-.126.5039-.126,2.76758-.251,5.28711-.62891,7.42578-2.13965,1.25977-1.00683,2.51758-.75488,6.67188-4.6582.75586,0,1.00781-.251,1.51172-.88086a61.7971,61.7971,0,0,1,5.53906-4.28027c1.38477-.126,1.76172-2.26563,3.14649-2.76953.37695-.88086,1.25781-1.13282,2.01367-1.51075v.252l-1.00586,2.14062-1.51172,1.51074-6.168,6.41993-4.91016,4.65722h-.37695c-.25195,0-1.00781,0-1.00781.37793a3.93957,3.93957,0,0,1-1.25781,1.25879,5.75608,5.75608,0,0,0-1.63672,1.00684,29.7544,29.7544,0,0,1-6.67188,2.2666,6.2971,6.2971,0,0,1-4.53125-.50391c-1.00781-.37793-2.14062-.88086-2.39258-2.26562a1.33458,1.33458,0,0,0-.6289-.252c-1.51172-.25195-1.76367-1.38476-2.26563-2.64355a.56172.56172,0,0,0-.3789-.50391.45886.45886,0,0,0-.62891.252c-.75586,1.25879-2.14062,1.88867-2.89648,3.14746l-.377.37695-.75586.37793c-.25195.126-.50195.75586-.88086,1.13281-.125.126-.75586.126-1.25781.37793-.127.37793-.75586.50391-1.13281.50391-.50391,0-.63086.251-.63086.6289.12695.252-.125.37793-.50195.37793-1.63672,0-3.40039.50391-4.53321-1.13281a8.65489,8.65489,0,0,1-2.01367-2.64355,5.35338,5.35338,0,0,1,0-2.01465c0-.75488.50391-1.13281.37695-1.63672a2.54547,2.54547,0,0,1,.127-.62891,8.94473,8.94473,0,0,0,1.00586-2.26562,4.64753,4.64753,0,0,1,2.26758-2.64356,2.57922,2.57922,0,0,1,.6289-2.14062,46.2618,46.2618,0,0,1,3.90235-4.7832l2.76953-2.51758c1.00586-.88184,3.14648-.88184,4.27929-.75586,1.88868.25195,3.02149,1.76269,4.53321,2.51758.125,0,.125.252.37695.252,1.38477.50391,1.63672,1.88867,2.14062,2.76953C931.57547,115.63241,931.82743,117.773,930.31571,117.899Zm-4.02734-4.78418c-.50391-.50293-1.13282-.88086-1.76368-.50293-.37695.50293-1.63672-.126-1.88867,1.13281-.7539,0-1.38476.75489-1.76172,1.25879-.5039.50293-1.00781,1.13282-1.38476,1.13282-.75586,0-.88086.126-.88086.5039a2.62735,2.62735,0,0,1-1.00781,1.63574c-.62891.252-.62891.50391-.75391,1.13379l-1.13281,1.8877a26.50869,26.50869,0,0,0-2.76953,7.0498.58625.58625,0,0,0,.6289.62891c.25195,0,.37695-.37695.50391-.37695,1.50976-1.13282,3.39844-1.63672,4.65625-2.76953l.75586-.37793h.12695c-.12695-.50391,0-.88086.62891-.88086.125,0,.5039,0,.5039-.126a1.20662,1.20662,0,0,1,1.13282-1.00684c.5039-.126.6289-.62988.7539-1.00781q0-.56543.75586-.75488c.12695,0,.25195-.37793.62891-.50391a3.84,3.84,0,0,0,.25195-1.00683c.25195-.37793.88281-1.13282.63086-1.38477-.12695-1.38476.75391-2.13965.88086-3.14746l.62891-2.3916A.12309.12309,0,0,0,926.28837,113.11483Zm-6.67188,15.23242c0,.126-.12695.126-.37891.252.252,0,.252.37695.37891.37695a.45977.45977,0,0,1,.50195-.50293A.75476.75476,0,0,0,919.61649,128.34725Z"/><path class="cls-2" d="M981.17508,121.5494c.377.37793.125.37793.62891.252l1.00781-.88184a.4628.4628,0,0,1,.377.126c.125-.75489,1.00781-1.25879,2.26562-2.01368l.12695-.37793a5.90326,5.90326,0,0,1,1.13282-.37793l1.25781-.251c.127,0,.127-.252.252-.252.377-.252.62891-.50391.377-.88184l.3789-.37695a2.12126,2.12126,0,0,1,1.50977-1.13282l1.25976-.5039c0,.126.377,0,.62891-.126a4.59877,4.59877,0,0,0,2.14062-2.01367c2.89454-1.63672,4.2793-2.39258-.12695,2.51758a1.362,1.362,0,0,0-.88086.37695,2.387,2.387,0,0,1-1.13281.37793c-.125,0-.25195.126-.37695.126,0,.126.125.252.37695.75488l-4.40625,3.77734a6.53878,6.53878,0,0,1-1.50977.62891c-.12695,0-.25195.126-.63086.252.37891,1.13281-.25,1.13281-2.01367,1.63672-.125,0-.125,0,0,.50293a2.97816,2.97816,0,0,0-1.63672,1.25879c-1.13281.75586-2.51757,2.14062-2.89453,2.39258-.3789.251-.5039.251-.5039,0-.125.377-.50391.6289-1.13282.6289h-.25195c-1.50977,1.63672-1.25781.88184-1.63672,1.13282l-1.76172.88183-.88086.251-1.38476.88184c-.252.37792-.50391.50292-.75586.37792q0,.1875-.75586.377l-1.88867.5039a22.69536,22.69536,0,0,1-5.41211,1.51075,13.671,13.671,0,0,1-4.53125,0,10.68983,10.68983,0,0,1-2.14063-.75586v.126a5.04808,5.04808,0,0,1-1.76172-1.38476,2.12643,2.12643,0,0,1-.75586-1.00684.76192.76192,0,0,0-.37695-.75488l-.127-.25195-.62891-.88184s-.6289-.37695-1.00781-.62891c.37891-.25195.50391-.5039.37891-.62988a4.01539,4.01539,0,0,1-.37891-1.76172,3.17056,3.17056,0,0,0-.25195-.88183,6.33436,6.33436,0,0,1,.25195-3.02051l.25195-1.00781.50391-.88086a1.36877,1.36877,0,0,1,.88086-1.25879c-.125-.50391.127-.62989.377-.88086a.43887.43887,0,0,0,.12695-.252,25.074,25.074,0,0,1,2.89454-4.53223l.88086-1.13281,1.76367-1.88868c0-.37695.6289-.6289,1.13281-.6289.37695,0,.62891-.50391.88086-.88086l.377-.50391a2.31618,2.31618,0,0,0,1.51172-1.00683c.88086-.75586,1.38477-1.38477,2.64258-1.51075a6.36469,6.36469,0,0,1,3.77734.126l1.88867,1.13281-.12695-.126.75586.5039a4.82733,4.82733,0,0,1,1.63672,1.8877l.62891,1.63672a1.1973,1.1973,0,0,1-.252.88086v.88183c.252.126,0,.62891-.25195.88086l-1.00586,2.64356c-.12695.126-.12695.252-.25195.252.5039.50293.25195.88086,0,1.63672-.127.126-.127.251-.127.6289-.25195.50391-.88086.50391-1.50976,0-.12695,0-.50391-.252-.62891-.252-1.63672-.37695-2.26562-1.25879-1.51172-2.64355a1.125,1.125,0,0,0,.127-.62891,1.20033,1.20033,0,0,1,.25195-.88184l.37695-.75488-.125.126a3.65758,3.65758,0,0,1,.88086-1.51074l.125-.75489c1.63672-1.25879-1.25781-1.25879-1.50976-2.14062h-.37891c-.25195,0-.50195,0-.62891.25195a5.98491,5.98491,0,0,1-2.26562,1.00684l-.25195.126a12.74208,12.74208,0,0,1-2.01368,1.63672,1.4474,1.4474,0,0,0-1.13281.75489,9.201,9.201,0,0,0-1.13281,1.13281l-1.13281,1.00781a8.28249,8.28249,0,0,0-1.76368,1.8877L957.886,118.151a2.88134,2.88134,0,0,1-.75586,1.50977,1.77431,1.77431,0,0,0-.75586,1.51074l-1.50976,3.02149a2.66531,2.66531,0,0,0-.50391.75488c.12695.25195.50391.62988.50391,1.00781l.125,1.63574a.94633.94633,0,0,0,.12695.50391l.50391.88086a4.71144,4.71144,0,0,0,1.63672,1.51074l-.127.126.252.126a4.7487,4.7487,0,0,0,2.51757.5039c.377,0,.377-.126.62891-.126a3.27,3.27,0,0,0,1.38477-.37793,22.85979,22.85979,0,0,0,2.39257-.62891l2.14063-.88184,4.02734-1.38476.75586-.377h-.127c0-.126.127-.252.5039-.252.127-.37793.75586-.5039,1.51172-.88183l1.00586-.125c-.125,0-.125,0,0-.126l.88086-1.13379a1.90688,1.90688,0,0,0,1.51172-.75488,1.53045,1.53045,0,0,1,1.25781-.75489,2.1214,2.1214,0,0,0,.63086-.25195l1.25782-.88183Z"/><path class="cls-2" d="M1021.96219,120.41659l-.12695-.25195c0,.25195-.62891.62988-1.13281.75488l.12695.126-.88086.88183-.75586,1.13281-.5039.126a1.01683,1.01683,0,0,0-.75586.62891c0,.126-.502.75586-.88086.75586l-.50391.25195c-.125.251-.37695-.88184-.75391-.75586l.125.25195c0,.37793.127.62891-.25195.75489h-.125a5.9533,5.9533,0,0,1-.6289.252l-.252.50391c0,.37793-1.76367,1.00683-1.76367,1.13281-.25195.75488-1.38477.88086-2.39062.75488-.37891-.126-.50391-.251-.37891.50391,0,0,.127.5039-.125.5039a3.649,3.649,0,0,1-1.38477.377l-1.13281.62988c-.12695,0-.25195.126-.37891.126,0,.126-.25,0-.50195.126,0,.126-.3789.251-.5039.251.125.62988-.37891.88184-.88086.88184h-.252l-.88086.37792c-.25195,0-.5039-.126-.75586.251v-.126c-.12695.37793-.6289.252-1.00781.252a2.71842,2.71842,0,0,1-1.38476.126,5.85053,5.85053,0,0,1-4.2793-.6289,1.80966,1.80966,0,0,1-1.63672-.50391L993.513,129.732c-.12695-.25195-.5039-.37793-.75585-.88086a3.47252,3.47252,0,0,1-1.13282-1.7627l-.63086-.5039a3.86449,3.86449,0,0,1-.6289-1.13281,17.42872,17.42872,0,0,1-.377-3.77637c-.12695-.88086-.6289-1.63672,1.00586-3.27344,1.00782-1.13281.88282-1.13281,1.00782-1.51074v.126c.75586-1.76172.5039-.75489.75586-1.13282l1.76171-2.01367,1.25977-1.25879c.125,0,.25195,0,.25195-.252a1.48287,1.48287,0,0,0,.75391-.62988,2.36242,2.36242,0,0,1,1.38476-.62891,2.36961,2.36961,0,0,0,1.00782-.25195l1.00781-.37793.50195.126c.88282.126,1.76367.126,2.14063,1.13282.12695,0,.25195.126.37695.252.12695.126.25195.25195.37891.25195a3.56029,3.56029,0,0,1,2.01367,3.65039c-.125,0-.125.252-.125.252-.37891-.126-.63086.126-.12695.5039l-.252.75489a1.69692,1.69692,0,0,0-1.13281,1.13281l-.62891.37793-.5039.6289a2.93759,2.93759,0,0,1-1.50977,1.25977,3.88192,3.88192,0,0,1-1.13281,1.76172l-.37891.37793a7.0835,7.0835,0,0,1-2.26562.88086c-.25195.252-.88086.252-1.25781.252l-1.88868.25195c-.75586-.126-1.13281.37793-.88086.75489,0,.62988.125,1.13379.75391,1.38476a5.64744,5.64744,0,0,0,3.39844,2.01465,16.5127,16.5127,0,0,0,6.29492-1.38477l.88086-.25195a15.56074,15.56074,0,0,0,2.51758-1.25879l1.00781-.25195a2.84374,2.84374,0,0,1,1.38477-.62891c.25195,0,2.01367.126,1.63671-.37793l.75586-.75586c.125-.37695.502-.50293,1.13282-.50293.50195-.126.88086-.252,1.00586-.75585l1.88867-1.25879c1.00781-.62891,1.13281-.88086,2.01367-1.51075l1.51172-1.00683a1.2064,1.2064,0,0,1,1.13281-.62891c1.88867.62891,1.76172-2.51758,3.52539-2.51758,1.38477-1.25976,4.02735-3.65136,4.2793-2.2666-.88086,1.7627-3.90235,4.65821-5.53906,5.917A3.08038,3.08038,0,0,1,1021.96219,120.41659Zm-20.01562-6.29492-.12695-.125-1.25782.50293c0,.5039-.37695.5039-.6289.37793h-.252l-.63086.252c-.6289.37695-1.13281.126-1.38476.88086,0,0-.37695.25195-.62891.37793-1.50976.62891-1.38476,1.76269-2.01367,2.01367-.62891.50391-.62891,1.7627-.125,1.63672l.50195-.126a11.8766,11.8766,0,0,0,2.14063-1.13281l3.02148-2.76953.62891-.75488.88086-.88184A.39159.39159,0,0,0,1001.94657,114.12167Z"/><path class="cls-3" d="M160.42785,136.46834v-67.496A15.88569,15.88569,0,0,0,152.485,55.215L94.03179,21.467a15.88567,15.88567,0,0,0-15.88569,0L19.69289,55.215a15.88568,15.88568,0,0,0-7.94284,13.75741v67.496a15.88569,15.88569,0,0,0,7.94284,13.75741l58.45321,33.748a15.88572,15.88572,0,0,0,15.88569,0l58.45321-33.748A15.8857,15.8857,0,0,0,160.42785,136.46834Z"/><path class="cls-4" d="M151.99259,54.93064,94.52424,21.75126a16.87057,16.87057,0,0,0-16.87058,0L20.18531,54.93064A16.87055,16.87055,0,0,0,11.75,69.541v33.213H160.42786V69.541A16.87057,16.87057,0,0,0,151.99259,54.93064Z"/><path class="cls-5" d="M54.47492,100.6999a31.614,31.614,0,0,1,63.22806,0"/><path class="cls-3" d="M86.089,197.8355a27.66272,27.66272,0,0,1-13.83356-3.69491L13.83355,160.41077A27.74356,27.74356,0,0,1,0,136.44988v-67.459a27.745,27.745,0,0,1,13.83355-23.9609L72.25539,11.30011a27.7455,27.7455,0,0,1,27.66711,0l58.42184,33.72982a27.745,27.745,0,0,1,13.83356,23.9609v67.45905a27.74355,27.74355,0,0,1-13.83356,23.96089L99.9225,194.14059A27.66268,27.66268,0,0,1,86.089,197.8355Zm0-185.35535a22.7841,22.7841,0,0,0-11.3949,3.04356L16.27221,49.25353A22.85472,22.85472,0,0,0,4.87732,68.99083v67.45905a22.854,22.854,0,0,0,11.39489,19.7373L74.69405,189.917a22.85266,22.85266,0,0,0,22.78979,0l58.42184-33.72982a22.854,22.854,0,0,0,11.3949-19.7373v-67.459a22.85473,22.85473,0,0,0-11.3949-19.7373L97.48384,15.52371A22.79171,22.79171,0,0,0,86.089,12.48015Z"/><g class="cls-6"><rect class="cls-5" x="0.5877" y="75.45794" width="171.00249" height="2.72003"/><rect class="cls-5" x="0.5877" y="87.60499" width="171.00249" height="2.72003"/><rect class="cls-5" x="0.5877" y="51.16385" width="171.00249" height="2.72003"/><rect class="cls-5" x="0.5877" y="63.3109" width="171.00249" height="2.72003"/><rect class="cls-5" x="0.5877" y="26.86975" width="171.00249" height="2.72003"/><rect class="cls-5" x="0.5877" y="39.0168" width="171.00249" height="2.72003"/><rect class="cls-5" x="0.5877" y="99.75204" width="171.00249" height="2.72003"/></g><path class="cls-5" d="M46.04081,165.43787l32.10547,18.53589a15.88514,15.88514,0,0,0,15.88525,0L125.69462,165.693C96.4827,134.02588,86.885,102.754,86.885,102.754S76.21854,133.41773,46.04081,165.43787Z"/></svg>