<svg id="Layer_1" data-name="Layer 1" xmlns="http://www.w3.org/2000/svg" xmlns:xlink="http://www.w3.org/1999/xlink" viewBox="0 0 172.1779 190.22999"><defs><style>.cls-1{fill:none;}.cls-2{fill:#8ce1d2;}.cls-3{fill:#baede4;}.cls-4{fill:#fff;}.cls-5{clip-path:url(#clip-path);}</style><clipPath id="clip-path"><path class="cls-1" d="M160.42785,128.86283V61.36688A15.88569,15.88569,0,0,0,152.485,47.60947l-58.45321-33.748a15.88572,15.88572,0,0,0-15.88569,0l-58.45321,33.748a15.88568,15.88568,0,0,0-7.94284,13.75741v67.49595a15.88569,15.88569,0,0,0,7.94284,13.75741l58.45321,33.748a15.88572,15.88572,0,0,0,15.88569,0l58.45321-33.748A15.8857,15.8857,0,0,0,160.42785,128.86283Z"/></clipPath></defs><title>j2p-logo-bug</title><path class="cls-2" d="M160.42785,128.86283V61.36688A15.88569,15.88569,0,0,0,152.485,47.60947l-58.45321-33.748a15.88572,15.88572,0,0,0-15.88569,0l-58.45321,33.748a15.88568,15.88568,0,0,0-7.94284,13.75741v67.49595a15.88569,15.88569,0,0,0,7.94284,13.75741l58.45321,33.748a15.88572,15.88572,0,0,0,15.88569,0l58.45321-33.748A15.8857,15.8857,0,0,0,160.42785,128.86283Z"/><path class="cls-3" d="M151.99259,47.32513,94.52424,14.14575a16.87057,16.87057,0,0,0-16.87058,0L20.18531,47.32513A16.87055,16.87055,0,0,0,11.75,61.93546v33.213H160.42786v-33.213A16.87057,16.87057,0,0,0,151.99259,47.32513Z"/><path class="cls-4" d="M54.47492,93.09439a31.614,31.614,0,0,1,63.22806,0"/><path class="cls-2" d="M86.089,190.23a27.66272,27.66272,0,0,1-13.83356-3.69491L13.83355,152.80526A27.74355,27.74355,0,0,1,0,128.84437v-67.459A27.745,27.745,0,0,1,13.83355,37.42443L72.25539,3.6946a27.74555,27.74555,0,0,1,27.66711,0l58.42184,33.72983A27.745,27.745,0,0,1,172.1779,61.38532v67.459a27.74354,27.74354,0,0,1-13.83356,23.96089L99.9225,186.53508A27.66268,27.66268,0,0,1,86.089,190.23Zm0-185.35535A22.7841,22.7841,0,0,0,74.69405,7.9182L16.27221,41.648A22.85472,22.85472,0,0,0,4.87732,61.38532v67.459a22.854,22.854,0,0,0,11.39489,19.7373l58.42184,33.72982a22.85266,22.85266,0,0,0,22.78979,0l58.42184-33.72982a22.854,22.854,0,0,0,11.3949-19.7373v-67.459a22.85473,22.85473,0,0,0-11.3949-19.7373L97.48384,7.9182A22.79171,22.79171,0,0,0,86.089,4.87464Z"/><g class="cls-5"><rect class="cls-4" x="0.5877" y="67.85244" width="171.00249" height="2.72003"/><rect class="cls-4" x="0.5877" y="79.99948" width="171.00249" height="2.72003"/><rect class="cls-4" x="0.5877" y="43.55834" width="171.00249" height="2.72003"/><rect class="cls-4" x="0.5877" y="55.70539" width="171.00249" height="2.72003"/><rect class="cls-4" x="0.5877" y="19.26424" width="171.00249" height="2.72003"/><rect class="cls-4" x="0.5877" y="31.41129" width="171.00249" height="2.72003"/><rect class="cls-4" x="0.5877" y="92.14653" width="171.00249" height="2.72003"/></g><path class="cls-4" d="M46.04081,157.83236l32.10547,18.53589a15.88514,15.88514,0,0,0,15.88525,0l31.66309-18.28076C96.4827,126.42037,86.885,95.14852,86.885,95.14852S76.21854,125.81222,46.04081,157.83236Z"/></svg>