<?xml version="1.0" standalone="no"?>
<!DOCTYPE svg PUBLIC "-//W3C//DTD SVG 1.1//EN" "http://www.w3.org/Graphics/SVG/1.1/DTD/svg11.dtd" >
<svg xmlns="http://www.w3.org/2000/svg">
<metadata>Generated by IcoMoon</metadata>
<defs>
<font id="parfait-iconfont" horiz-adv-x="1024">
<font-face units-per-em="1024" ascent="960" descent="-64" />
<missing-glyph horiz-adv-x="1024" />
<glyph unicode="&#x20;" horiz-adv-x="512" d="" />
<glyph unicode="&#xe000;" glyph-name="error" d="M554 406v256h-84v-256h84zM554 234v86h-84v-86h84zM512 874c236 0 426-190 426-426s-190-426-426-426-426 190-426 426 190 426 426 426z" />
<glyph unicode="&#xe001;" glyph-name="error_outline" d="M512 106c188 0 342 154 342 342s-154 342-342 342-342-154-342-342 154-342 342-342zM512 874c236 0 426-190 426-426s-190-426-426-426-426 190-426 426 190 426 426 426zM470 662h84v-256h-84v256zM470 320h84v-86h-84v86z" />
<glyph unicode="&#xe002;" glyph-name="warning" d="M554 362v172h-84v-172h84zM554 192v86h-84v-86h84zM42 64l470 810 470-810h-940z" />
<glyph unicode="&#xe03c;" glyph-name="queue" d="M810 490v86h-170v170h-86v-170h-170v-86h170v-170h86v170h170zM854 874c46 0 84-38 84-84v-512c0-46-38-86-84-86h-512c-46 0-86 40-86 86v512c0 46 40 84 86 84h512zM170 704v-598h598v-84h-598c-46 0-84 38-84 84v598h84z" />
<glyph unicode="&#xe0da;" glyph-name="vpn_key" d="M298 362c46 0 86 40 86 86s-40 86-86 86-84-40-84-86 38-86 84-86zM540 534h442v-172h-86v-170h-170v170h-186c-34-100-130-170-242-170-142 0-256 114-256 256s114 256 256 256c112 0 208-70 242-170z" />
<glyph unicode="&#xe145;" glyph-name="plus" d="M810 406h-256v-256h-84v256h-256v84h256v256h84v-256h256v-84z" />
<glyph unicode="&#xe146;" glyph-name="add_box" d="M726 406v84h-172v172h-84v-172h-172v-84h172v-172h84v172h172zM810 832c46 0 86-40 86-86v-596c0-46-40-86-86-86h-596c-48 0-86 40-86 86v596c0 46 38 86 86 86h596z" />
<glyph unicode="&#xe147;" glyph-name="add_circle" d="M726 406v84h-172v172h-84v-172h-172v-84h172v-172h84v172h172zM512 874c236 0 426-190 426-426s-190-426-426-426-426 190-426 426 190 426 426 426z" />
<glyph unicode="&#xe149;" glyph-name="archive" d="M218 746h588l-40 44h-512zM512 214l234 234h-148v86h-172v-86h-148zM876 736c12-14 20-34 20-54v-532c0-46-40-86-86-86h-596c-46 0-86 40-86 86v532c0 20 8 40 20 54l58 72c12 14 30 24 50 24h512c20 0 38-10 50-24z" />
<glyph unicode="&#xe14a;" glyph-name="backspace" d="M810 294l-152 154 152 154-60 60-152-154-154 154-60-60 154-154-154-154 60-60 154 154 152-154zM938 832c46 0 86-40 86-86v-596c0-46-40-86-86-86h-640c-30 0-52 16-68 38l-230 346 230 346c16 22 38 38 68 38h640z" />
<glyph unicode="&#xe14b;" glyph-name="block" d="M512 106c188 0 342 154 342 342 0 78-26 152-72 210l-480-480c58-46 132-72 210-72zM170 448c0-78 26-152 72-210l480 480c-58 46-132 72-210 72-188 0-342-154-342-342zM512 874c236 0 426-190 426-426s-190-426-426-426-426 190-426 426 190 426 426 426z" />
<glyph unicode="&#xe157;" glyph-name="composer_link" horiz-adv-x="960" d="M885.77 448.001c0.551 4.848 0.865 10.467 0.865 16.159 0 83.607-67.776 151.383-151.383 151.383-4.971 0-9.886-0.24-14.734-0.708l-171.16 0.048v71.982h171.776c1.891 0.056 4.116 0.087 6.348 0.087 127.262 0 230.428-103.166 230.428-230.428 0-2.998-0.057-5.982-0.171-8.952 0.113-2.114 0.171-5.099 0.171-8.096 0-127.262-103.166-230.428-230.428-230.428-2.232 0-4.457 0.032-6.674 0.095l-171.45-0.007v71.982h171.776c90.75 2.35 163.552 75.938 164.636 166.778zM74.232 448.001c1.086-90.945 73.892-164.533 164.425-166.875l171.99-0.004v-71.981h-171.772c-1.901-0.056-4.137-0.088-6.38-0.088-127.249 0-230.404 103.155-230.404 230.404 0 3.005 0.058 5.997 0.172 8.974-0.114 2.119-0.172 5.111-0.172 8.116 0 127.249 103.155 230.404 230.404 230.404 2.243 0 4.479-0.032 6.707-0.096l171.444 0.007v-71.985h-171.772c-4.23 0.42-9.143 0.659-14.112 0.659-83.613 0-151.395-67.782-151.395-151.395 0-5.686 0.313-11.298 0.924-16.821zM287.984 400.029v96h379.478v-96z" />
<glyph unicode="&#xe15b;" glyph-name="minus" d="M810 406h-596v84h596v-84z" />
<glyph unicode="&#xe15c;" glyph-name="remove_circle" d="M726 406v84h-428v-84h428zM512 874c236 0 426-190 426-426s-190-426-426-426-426 190-426 426 190 426 426 426z" />
<glyph unicode="&#xe15d;" glyph-name="remove_circle_outline" d="M512 106c188 0 342 154 342 342s-154 342-342 342-342-154-342-342 154-342 342-342zM512 874c236 0 426-190 426-426s-190-426-426-426-426 190-426 426 190 426 426 426zM298 490h428v-84h-428v84z" />
<glyph unicode="&#xe160;" glyph-name="report" d="M554 406v256h-84v-256h84zM512 222c30 0 56 26 56 56s-26 54-56 54-56-24-56-54 26-56 56-56zM672 832l224-224v-320l-224-224h-320l-224 224v320l224 224h320z" />
<glyph unicode="&#xe234;" glyph-name="composer_align_center" horiz-adv-x="896" d="M0 768h896v-96h-896v96zM224 496h448v-96h-448v96zM64 224h768v-96h-768v96z" />
<glyph unicode="&#xe236;" glyph-name="composer_align_left" horiz-adv-x="896" d="M0 768h896v-96h-896v96zM0 496h512v-96h-512v96zM0 224h768v-96h-768v96z" />
<glyph unicode="&#xe237;" glyph-name="composer_align_right" horiz-adv-x="896" d="M0.001 768h896v-96h-896v96zM384.001 496h512v-96h-512v96zM128.001 224h768v-96h-768v96z" />
<glyph unicode="&#xe238;" glyph-name="composer_bold" horiz-adv-x="512" d="M493.717 311.034c0-111.808-84.934-183.86-231.412-183.86h-262.305v641.014h231.394c127.833 0 200.964-62.684 200.964-157.141 0.060-1.501 0.094-3.263 0.094-5.033 0-60.683-40.287-111.957-95.574-128.534 86.933-5.502 156.284-77.787 156.838-166.391zM343.573 328.908c-0.064 55.596-46.813 85.458-107.185 85.458h-87.137v-171.995h84.238c68.079 0 110.143 28.969 110.082 86.537zM214.167 652.992h-64.915v-130.578l54.93-0.064c51.648-0.092 89.958 21.141 89.958 66.444 0.001 44.288-32.297 64.198-79.972 64.198z" />
<glyph unicode="&#xe23a;" glyph-name="format_color_fill" d="M0 106h1024v-170h-1024v170zM810 470c0 0 86-94 86-150 0-46-40-86-86-86s-84 40-84 86c0 56 84 150 84 150zM222 534h410l-206 204zM706 578c26-26 26-66 0-90l-234-234c-12-12-30-20-46-20s-32 8-44 20l-236 234c-26 24-26 64 0 90l220 220-102 102 62 60z" />
<glyph unicode="&#xe23c;" glyph-name="format_color_text" d="M410 448h204l-102 270zM470 832h84l234-598h-96l-46 128h-268l-48-128h-96zM0 106h1024v-170h-1024v170z" />
<glyph unicode="&#xe23f;" glyph-name="composer_italic" horiz-adv-x="512" d="M253.604 262.644c-0.037-0.496-0.059-1.075-0.059-1.659 0-6.374 2.537-12.155 6.656-16.389 5.828-4.622 13.034-7.765 20.913-8.742 9.629-1.742 38.886-3.416 38.886-3.416v-104.438h-320v104.438c19.433 0.132 38.258 2.452 56.327 6.726 9.883 2.978 19.585 9.756 26.485 18.789 8.77 12.858 15.773 27.603 20.32 43.388s140.241 319.023 140.241 328.044c0.010 0.271 0.016 0.59 0.016 0.91 0 6.685-2.506 12.786-6.631 17.412-10.815 12.042-44.759 11.906-44.759 12.464v107.829h320v-107.829c-4.55 0.426-9.84 0.669-15.186 0.669-17.52 0-34.431-2.611-50.363-7.465-11.185-2.859-21.718-9.584-29.545-18.7-7.064-9.354-153.882-332.24-153.882-332.24-4.473-11.583-7.791-25.050-9.352-39.048z" />
<glyph unicode="&#xe240;" glyph-name="format_line_spacing" d="M426 406v84h512v-84h-512zM426 150v84h512v-84h-512zM426 746h512v-84h-512v84zM256 662v-428h106l-148-148-150 148h106v428h-106l150 148 148-148h-106z" />
<glyph unicode="&#xe241;" glyph-name="composer_list_bulleted" horiz-adv-x="800" d="M197 746h598v-84h-598v84zM197 406v84h598v-84h-598zM197 150v84h598v-84h-598zM69 256c36 0 64-30 64-64s-30-64-64-64-64 30-64 64 28 64 64 64zM69 768c36 0 64-28 64-64s-28-64-64-64-64 28-64 64 28 64 64 64zM69 512c36 0 64-28 64-64s-28-64-64-64-64 28-64 64 28 64 64 64z" />
<glyph unicode="&#xe242;" glyph-name="composer_list_numbered" horiz-adv-x="832" d="M234.004 406v84h598v-84h-598zM234.004 150v84h598v-84h-598zM234.004 746h598v-84h-598v84zM22.004 490v44h128v-40l-78-88h78v-44h-128v40l76 88h-76zM64.004 618v128h-42v44h84v-172h-42zM22.004 234v44h128v-172h-128v44h84v20h-42v44h42v20h-84z" />
<glyph unicode="&#xe243;" glyph-name="format_list_bulleted2" d="M298 746h598v-84h-598v84zM298 406v84h598v-84h-598zM298 150v84h598v-84h-598zM170 256c36 0 64-30 64-64s-30-64-64-64-64 30-64 64 28 64 64 64zM170 768c36 0 64-28 64-64s-28-64-64-64-64 28-64 64 28 64 64 64zM170 512c36 0 64-28 64-64s-28-64-64-64-64 28-64 64 28 64 64 64z" />
<glyph unicode="&#xe244;" glyph-name="format_quote" d="M598 234l84 172h-128v256h256v-256l-84-172h-128zM256 234l86 172h-128v256h256v-256l-86-172h-128z" />
<glyph unicode="&#xe254;" glyph-name="mode_edit" d="M884 660l-78-78-160 160 78 78c16 16 44 16 60 0l100-100c16-16 16-44 0-60zM128 224l472 472 160-160-472-472h-160v160z" />
<glyph unicode="&#xe2c6;" glyph-name="file_upload" d="M214 192h596v-86h-596v86zM384 278v256h-170l298 298 298-298h-170v-256h-256z" />
<glyph unicode="&#xe3b8;" glyph-name="composer_colorize" horiz-adv-x="768" d="M165 148l344 344-82 82-344-344zM753 718c16-16 18-42 0-60l-134-134 82-82-60-60-60 60-382-380h-202v202l380 382-60 60 60 60 82-82 134 134c16 16 44 16 60 0z" />
<glyph unicode="&#xe3ba;" glyph-name="control_point" d="M512 106c188 0 342 154 342 342s-154 342-342 342-342-154-342-342 154-342 342-342zM512 874c236 0 426-190 426-426s-190-426-426-426-426 190-426 426 190 426 426 426zM554 662v-172h172v-84h-172v-172h-84v172h-172v84h172v172h84z" />
<glyph unicode="&#xe408;" glyph-name="navigate_before" d="M658 644l-196-196 196-196-60-60-256 256 256 256z" />
<glyph unicode="&#xe409;" glyph-name="navigate_next" d="M426 704l256-256-256-256-60 60 196 196-196 196z" />
<glyph unicode="&#xe56b;" glyph-name="zoom_out_map" d="M896 320v-256h-256l98 98-124 122 62 62 122-124zM384 64h-256v256l98-98 122 124 62-62-124-122zM128 576v256h256l-98-98 124-122-62-62-122 124zM640 832h256v-256l-98 98-122-124-62 62 124 122z" />
<glyph unicode="&#xe5c3;" glyph-name="apps" d="M682 106v172h172v-172h-172zM682 362v172h172v-172h-172zM426 618v172h172v-172h-172zM682 790h172v-172h-172v172zM426 362v172h172v-172h-172zM170 362v172h172v-172h-172zM170 106v172h172v-172h-172zM426 106v172h172v-172h-172zM170 618v172h172v-172h-172z" />
<glyph unicode="&#xe5c4;" glyph-name="arrow_back" d="M854 490v-84h-520l238-240-60-60-342 342 342 342 60-60-238-240h520z" />
<glyph unicode="&#xe5c5;" glyph-name="arrow_drop_down" d="M298 534h428l-214-214z" />
<glyph unicode="&#xe5c7;" glyph-name="arrow_drop_up" d="M298 362l214 214 214-214h-428z" />
<glyph unicode="&#xe5c8;" glyph-name="arrow_forward" d="M512 790l342-342-342-342-60 60 238 240h-520v84h520l-238 240z" />
<glyph unicode="&#xe5c9;" glyph-name="cancel" d="M726 294l-154 154 154 154-60 60-154-154-154 154-60-60 154-154-154-154 60-60 154 154 154-154zM512 874c236 0 426-190 426-426s-190-426-426-426-426 190-426 426 190 426 426 426z" />
<glyph unicode="&#xe5ca;" glyph-name="check" d="M384 270l452 452 60-60-512-512-238 238 60 60z" />
<glyph unicode="&#xe5cd;" glyph-name="close" d="M810 686l-238-238 238-238-60-60-238 238-238-238-60 60 238 238-238 238 60 60 238-238 238 238z" />
<glyph unicode="&#xe5ce;" glyph-name="expand_less" d="M512 618l256-256-60-60-196 196-196-196-60 60z" />
<glyph unicode="&#xe5cf;" glyph-name="expand_more" d="M708 594l60-60-256-256-256 256 60 60 196-196z" />
<glyph unicode="&#xe5d0;" glyph-name="fullscreen" d="M598 746h212v-212h-84v128h-128v84zM726 234v128h84v-212h-212v84h128zM214 534v212h212v-84h-128v-128h-84zM298 362v-128h128v-84h-212v212h84z" />
<glyph unicode="&#xe5d1;" glyph-name="fullscreen_exit" d="M682 618h128v-84h-212v212h84v-128zM598 150v212h212v-84h-128v-128h-84zM342 618v128h84v-212h-212v84h128zM214 278v84h212v-212h-84v128h-128z" />
<glyph unicode="&#xe5d2;" glyph-name="menu" d="M128 704h768v-86h-768v86zM128 406v84h768v-84h-768zM128 192v86h768v-86h-768z" />
<glyph unicode="&#xe5d3;" glyph-name="more_horiz" d="M512 534c46 0 86-40 86-86s-40-86-86-86-86 40-86 86 40 86 86 86zM768 534c46 0 86-40 86-86s-40-86-86-86-86 40-86 86 40 86 86 86zM256 534c46 0 86-40 86-86s-40-86-86-86-86 40-86 86 40 86 86 86z" />
<glyph unicode="&#xe5d4;" glyph-name="more_vert" d="M512 278c46 0 86-40 86-86s-40-86-86-86-86 40-86 86 40 86 86 86zM512 534c46 0 86-40 86-86s-40-86-86-86-86 40-86 86 40 86 86 86zM512 618c-46 0-86 40-86 86s40 86 86 86 86-40 86-86-40-86-86-86z" />
<glyph unicode="&#xe5d5;" glyph-name="composer_refresh" horiz-adv-x="768" d="M647.549 712.643l109.357 109.357v-328.070h-328.070l150.912 150.912c-50.304 50.304-120.292 83.111-196.842 83.111-155.287 0-279.953-124.667-279.953-279.953s124.667-279.953 279.953-279.953c122.48 0 227.462 76.55 264.643 185.906h96.234c-41.556-161.848-185.906-279.953-360.877-279.953-205.591 0-371.813 168.409-371.813 374s166.222 374 371.813 374c102.795 0 196.842-41.556 264.643-109.357z" />
<glyph unicode="&#xe5d6;" glyph-name="unfold_less" d="M708 730l-196-196-196 196 60 60 136-136 136 136zM316 166l196 196 196-196-60-60-136 136-136-136z" />
<glyph unicode="&#xe5d7;" glyph-name="unfold_more" d="M512 184l136 136 60-60-196-196-196 196 60 60zM512 712l-136-136-60 60 196 196 196-196-60-60z" />
<glyph unicode="&#xe5d8;" glyph-name="arrow_upward" d="M170 448l342 342 342-342-62-60-238 238v-520h-84v520l-240-238z" />
<glyph unicode="&#xe5db;" glyph-name="arrow_downward" d="M854 448l-342-342-342 342 62 60 238-238v520h84v-520l240 238z" />
<glyph unicode="&#xe645;" glyph-name="priority_high" d="M426 832h172v-512h-172v512zM426 150c0 48 38 84 86 84s86-36 86-84-38-86-86-86-86 38-86 86z" />
<glyph unicode="&#xe7f0;" glyph-name="group_add" d="M554 406c86 0 256-42 256-128v-86h-512v86c0 86 170 128 256 128zM838 398c86-14 186-54 186-120v-86h-128v86c0 50-22 88-58 120zM554 490c-70 0-128 58-128 128s58 128 128 128 128-58 128-128-58-128-128-128zM768 490c-14 0-26 2-38 6 24 34 38 76 38 122s-14 88-38 122c12 4 24 6 38 6 70 0 128-58 128-128s-58-128-128-128zM342 534v-86h-128v-128h-86v128h-128v86h128v128h86v-128h128z" />
<glyph unicode="&#xe7fb;" glyph-name="people" d="M682 406c100 0 300-50 300-150v-106h-256v106c0 64-34 112-84 148 14 2 28 2 40 2zM342 406c100 0 298-50 298-150v-106h-598v106c0 100 200 150 300 150zM342 490c-70 0-128 58-128 128s58 128 128 128 126-58 126-128-56-128-126-128zM682 490c-70 0-128 58-128 128s58 128 128 128 128-58 128-128-58-128-128-128z" />
<glyph unicode="&#xe834;" glyph-name="check_box" d="M426 234l384 384-60 62-324-324-152 152-60-60zM810 832c48 0 86-40 86-86v-596c0-46-38-86-86-86h-596c-48 0-86 40-86 86v596c0 46 38 86 86 86h596z" />
<glyph unicode="&#xe835;" glyph-name="check_box_outline_blank" d="M810 832c46 0 86-40 86-86v-596c0-46-40-86-86-86h-596c-46 0-86 40-86 86v596c0 46 40 86 86 86h596zM810 746h-596v-596h596v596z" />
<glyph unicode="&#xe837;" glyph-name="radio_button_checked" d="M512 106c188 0 342 154 342 342s-154 342-342 342-342-154-342-342 154-342 342-342zM512 874c236 0 426-190 426-426s-190-426-426-426-426 190-426 426 190 426 426 426zM512 662c118 0 214-96 214-214s-96-214-214-214-214 96-214 214 96 214 214 214z" />
<glyph unicode="&#xe851;" glyph-name="account_box" d="M256 234v-42h512v42c0 86-170 132-256 132s-256-46-256-132zM640 576c0 70-58 128-128 128s-128-58-128-128 58-128 128-128 128 58 128 128zM128 746c0 46 38 86 86 86h596c46 0 86-40 86-86v-596c0-46-40-86-86-86h-596c-48 0-86 40-86 86v596z" />
<glyph unicode="&#xe853;" glyph-name="account_circle" d="M512 140c106 0 200 56 256 138-2 84-172 132-256 132-86 0-254-48-256-132 56-82 150-138 256-138zM512 746c-70 0-128-58-128-128s58-128 128-128 128 58 128 128-58 128-128 128zM512 874c236 0 426-190 426-426s-190-426-426-426-426 190-426 426 190 426 426 426z" />
<glyph unicode="&#xe854;" glyph-name="add_shopping_cart" d="M306 330c0-6 4-10 10-10h494v-86h-512c-46 0-84 40-84 86 0 14 4 28 10 40l58 106-154 324h-86v84h140c27.003-56.33 53.665-113.001 80-170 34.063-71.271 67.603-143.063 102-214h300c54.786 99.881 110.533 198.8 164 300l74-42-164-298c-14-26-42-44-74-44h-318l-38-70zM726 192c46 0 84-40 84-86s-38-84-84-84-86 38-86 84 40 86 86 86zM298 192c46 0 86-40 86-86s-40-84-86-84-84 38-84 84 38 86 84 86zM470 576v128h-128v86h128v128h84v-128h128v-86h-128v-128h-84z" />
<glyph unicode="&#xe85a;" glyph-name="announcement" d="M554 320v86h-84v-86h84zM554 490v256h-84v-256h84zM854 874c46 0 84-38 84-84v-512c0-46-38-86-84-86h-598l-170-170v768c0 46 38 84 84 84h684z" />
<glyph unicode="&#xe863;" glyph-name="autorenew" d="M800 630c34-52 54-116 54-182 0-188-154-342-342-342v-128l-170 172 170 170v-128c142 0 256 114 256 256 0 44-12 84-30 120zM512 704c-142 0-256-114-256-256 0-44 10-84 30-120l-62-62c-34 52-54 116-54 182 0 188 154 342 342 342v128l170-172-170-170v128z" />
<glyph unicode="&#xe86a;" glyph-name="cached" d="M256 448h128l-170-170-172 170h128c0 188 154 342 342 342 66 0 130-20 182-54l-62-62c-36 20-76 30-120 30-142 0-256-114-256-256zM810 618l172-170h-128c0-188-154-342-342-342-66 0-130 20-182 54l62 62c36-20 76-30 120-30 142 0 256 114 256 256h-128z" />
<glyph unicode="&#xe86c;" glyph-name="check_circle" d="M426 234l384 384-60 62-324-324-152 152-60-60zM512 874c236 0 426-190 426-426s-190-426-426-426-426 190-426 426 190 426 426 426z" />
<glyph unicode="&#xe86f;" glyph-name="code" d="M622 252l198 196-198 196 60 60 256-256-256-256zM402 252l-60-60-256 256 256 256 60-60-198-196z" />
<glyph unicode="&#xe884;" glyph-name="file_download" d="M214 192h596v-86h-596v86zM810 576l-298-298-298 298h170v256h256v-256h170z" />
<glyph unicode="&#xe887;" glyph-name="help" d="M642 480c24 24 40 58 40 96 0 94-76 170-170 170s-170-76-170-170h84c0 46 40 86 86 86s86-40 86-86c0-24-10-44-26-60l-52-54c-30-32-50-74-50-120v-22h84c0 64 20 88 50 120zM554 150v84h-84v-84h84zM512 874c236 0 426-190 426-426s-190-426-426-426-426 190-426 426 190 426 426 426z" />
<glyph unicode="&#xe888;" glyph-name="highlight_off" d="M512 106c188 0 342 154 342 342s-154 342-342 342-342-154-342-342 154-342 342-342zM512 874c236 0 426-190 426-426s-190-426-426-426-426 190-426 426 190 426 426 426zM622 618l60-60-110-110 110-110-60-60-110 110-110-110-60 60 110 110-110 110 60 60 110-110z" />
<glyph unicode="&#xe88a;" glyph-name="home" d="M418.419 75.851h-230.689v372.149h-139.284l463.554 417.851 463.554-417.851h-139.284v-372.149h-230.689v278.567h-187.163v-278.567z" />
<glyph unicode="&#xe88e;" glyph-name="info" d="M554 576v86h-84v-86h84zM554 234v256h-84v-256h84zM512 874c236 0 426-190 426-426s-190-426-426-426-426 190-426 426 190 426 426 426z" />
<glyph unicode="&#xe88f;" glyph-name="info_outline" d="M470 576v86h84v-86h-84zM512 106c188 0 342 154 342 342s-154 342-342 342-342-154-342-342 154-342 342-342zM512 874c236 0 426-190 426-426s-190-426-426-426-426 190-426 426 190 426 426 426zM470 234v256h84v-256h-84z" />
<glyph unicode="&#xe895;" glyph-name="find_in_page2" d="M384 406c0 70 58 128 128 128s128-58 128-128-58-128-128-128-128 58-128 128zM854 124l-164 164c22 34 36 74 36 118 0 118-96 212-214 212s-214-94-214-212 96-214 214-214c44 0 84 14 118 36l188-190c-14-10-30-16-50-16h-512c-46 0-86 38-86 84l2 684c0 46 38 84 84 84h342l256-256v-494z" />
<glyph unicode="&#xe8b3;" glyph-name="restore" d="M512 618h64v-180l150-90-32-52-182 110v212zM554 832c212 0 384-172 384-384s-172-384-384-384c-106 0-200 42-270 112l60 62c54-54 128-88 210-88 166 0 300 132 300 298s-134 298-300 298-298-132-298-298h128l-172-172-4 6-166 166h128c0 212 172 384 384 384z" />
<glyph unicode="&#xe8b5;" glyph-name="schedule" d="M534 662v-224l192-114-32-54-224 136v256h64zM512 106c188 0 342 154 342 342s-154 342-342 342-342-154-342-342 154-342 342-342zM512 874c236 0 426-190 426-426s-190-426-426-426-426 190-426 426 190 426 426 426z" />
<glyph unicode="&#xe8b6;" glyph-name="search" d="M406 362c106 0 192 86 192 192s-86 192-192 192-192-86-192-192 86-192 192-192zM662 362l212-212-64-64-212 212v34l-12 12c-48-42-112-66-180-66-154 0-278 122-278 276s124 278 278 278 276-124 276-278c0-68-24-132-66-180l12-12h34z" />
<glyph unicode="&#xe8cc;" glyph-name="shopping_cart" d="M726 192c46 0 84-40 84-86s-38-84-84-84-86 38-86 84 40 86 86 86zM42 874h140l40-84h632c24 0 42-20 42-44 0-8-2-14-6-20l-152-276c-14-26-42-44-74-44h-318l-38-70-2-6c0-6 4-10 10-10h494v-86h-512c-46 0-84 40-84 86 0 14 4 28 10 40l58 106-154 324h-86v84zM298 192c46 0 86-40 86-86s-40-84-86-84-84 38-84 84 38 86 84 86z" />
<glyph unicode="&#xe8fd;" glyph-name="help_outline" d="M512 704c94 0 170-76 170-170 0-106-128-118-128-214h-84c0 138 128 128 128 214 0 46-40 84-86 84s-86-38-86-84h-84c0 94 76 170 170 170zM512 106c188 0 342 154 342 342s-154 342-342 342-342-154-342-342 154-342 342-342zM512 874c236 0 426-190 426-426s-190-426-426-426-426 190-426 426 190 426 426 426zM470 192v86h84v-86h-84z" />
<glyph unicode="&#xe900;" glyph-name="composer_trash" horiz-adv-x="960" d="M576 576h64v-384h-64v384zM320 576h64v-384h-64v384zM448 576h64v-384h-64v384zM960 768h-256v128h-448v-128h-256v-64h128v-542.080c-0.227-3.109-0.356-6.735-0.356-10.392 0-83.835 67.961-151.796 151.796-151.796 3.169 0 6.316 0.097 9.437 0.289l381.709-0.021c2.903-0.198 6.291-0.31 9.706-0.31 83.975 0 152.050 68.075 152.050 152.050 0 3.582-0.124 7.135-0.368 10.655l0.026 541.605h128zM320 832h320v-64h-320zM768 161.92c0.358-2.988 0.562-6.447 0.562-9.955 0-48.864-39.612-88.477-88.477-88.477-3.347 0-6.651 0.186-9.901 0.548l-381.736-0.036c-2.573-0.266-5.56-0.417-8.582-0.417-48.835 0-88.424 39.589-88.424 88.424 0 3.493 0.203 6.939 0.597 10.326l-0.039 541.668h576z" />
<glyph unicode="&#xe901;" glyph-name="composer_h2" horiz-adv-x="960" d="M448 768v-640h-128v256h-192v-256h-128v640h128v-256h192v256zM960 256v-128h-384v92.188l188.438 247.936c67.187 84.625 54.813 185.25-49.375 185.5-0.193 0.001-0.421 0.002-0.649 0.002-37.006 0-70.040-17.006-91.712-43.63l-74.467 82.1c42.205 52.758 106.579 86.258 178.778 86.258 4.456 0 8.882-0.128 13.275-0.379 2.323 0.189 5.752 0.28 9.203 0.28 105.273 0 190.614-85.341 190.614-190.614 0-2.269-0.040-4.528-0.118-6.778 0.009-88.799-51.176-140.643-111.176-214.923l-90.998-109.94z" />
<glyph unicode="&#xe902;" glyph-name="composer_h3" horiz-adv-x="992" d="M448 768v-640h-128v256h-192v-256h-128v640h128v-256h192v256zM990.666 308.456c0-110.569-66.42-197.331-220.25-197.331-2.592-0.065-5.646-0.102-8.707-0.102-77.993 0-150.395 23.937-210.261 64.865l61.906 117.236c37.532-29.115 84.756-47.403 136.156-49.485 68.907 0.735 103.969 25.547 103.969 68.61 0 52.999-51.751 71.751-121.127 71.751h-41.875l-35 89.703 137.752 166.297h-217.229v128h384v-97.25l-156.58-181.461c100.335-2.12 181.554-81.107 187.223-180.325z" />
<glyph unicode="&#xe903;" glyph-name="composer_h4" d="M448 768v-640h-128v256h-192v-256h-128v640h128v-256h192v256zM1024 254.080l-64 0.128v-126.208h-128v126.582l-320 0.687v100.043l290.015 412.687h157.985l-285.632-384h157.632v128h128v-128h64z" />
<glyph unicode="&#xe904;" glyph-name="composer_image" d="M1024 179.929c-1.85-64.428-54.52-115.951-119.224-115.951-0.81 0-1.618 0.008-2.424 0.024l-780.824-0.002c-0.686-0.014-1.494-0.022-2.303-0.022-64.704 0-117.374 51.524-119.22 115.781l-0.405 536.56c1.872 64.298 54.442 115.708 119.019 115.708 0.882 0 1.762-0.010 2.639-0.029l780.813 0.002c0.747 0.017 1.626 0.026 2.508 0.026 64.578 0 117.148-51.41 119.016-115.536zM959.599 709.16c0.001 0.109 0.001 0.239 0.001 0.368 0 32.072-25.819 58.113-57.806 58.472h-780.358c-32.020-0.36-57.838-26.401-57.838-58.472 0-0.129 0-0.259 0.001-0.388l0.401-521.253c-0.001-0.153-0.002-0.334-0.002-0.515 0-32.255 25.713-58.505 57.759-59.37l780.406-0.002c32.126 0.867 57.839 27.116 57.839 59.372 0 0.181-0.001 0.362-0.002 0.543zM320 445.952l-128.832-189.952h640.832l-192.704 289.856-234.048-225.216-85.248 125.312z" />
<glyph unicode="&#xe905;" glyph-name="composer_video" d="M0 832v-768h1024v768zM169.412 123.077h-112.941v118.154h112.941zM169.412 300.308h-112.941v118.154h112.941zM169.412 477.539h-112.941v118.154h112.941zM169.412 654.769h-112.941v118.154h112.941zM798.118 123.077h-572.236v649.846h572.236zM967.53 123.077h-112.941v118.154h112.941zM967.53 300.308h-112.941v118.154h112.941zM967.53 477.539h-112.941v118.154h112.941zM967.53 654.769h-112.941v118.154h112.941zM384 306.816v282.368l282.368-141.184-282.368-141.184z" />
<glyph unicode="&#xe906;" glyph-name="key" d="M305.453 377.856c38.739 0 70.144 31.405 70.144 70.144s-31.405 70.144-70.144 70.144c-38.015-0.948-68.469-31.989-68.469-70.144s30.455-69.196 68.382-70.142zM502.838 512.013h424.512v-128.196h-128.531v-144.621h-138.659v144.621h-157.322c-24.343-84.192-100.731-144.715-191.255-144.715-2.156 0-4.304 0.034-6.443 0.102-115.007-0.008-208.491 93.477-208.491 208.796s93.485 208.804 208.804 208.804c1.525 0.042 3.321 0.066 5.121 0.066 90.818 0 167.5-60.527 191.907-143.442z" />
<glyph unicode="&#xe907;" glyph-name="module" d="M945.047 704.241c-1.16 0.737-2.516 1.467-3.925 2.101l-0.208 0.084-415.997 183.884c-3.808 1.718-8.256 2.719-12.938 2.719s-9.129-1.001-13.141-2.8l-415.267-183.57c-1.8-0.765-3.324-1.575-4.771-2.496-8.898-5.671-14.8-15.628-14.8-26.963 0-0.008 0-0.016 0-0.024v-450.077c0.019-12.663 7.378-23.602 18.050-28.793l416.538-198.325c3.742-1.792 8.126-2.87 12.754-2.944h0.108l0.526-0.004 0.526 0.004h0.083c4.653 0.074 9.038 1.152 12.969 3.025l0.599 0.294 415.58 197.866c10.87 5.271 18.237 16.209 18.267 28.872v450.082c-0.001 11.347-5.913 21.313-14.823 26.987zM511.977 826.058l339.328-149.968-339.328-161.619-339.331 161.619zM127.992 626.488l351.955-167.631v-379.136l-351.955 167.566zM896.008 247.288l-352.072-167.569v379.136l352.070 167.631z" />
<glyph unicode="&#xe908;" glyph-name="radio_button_unchecked" d="M512 105.984c187.989 0 342.016 153.984 342.016 342.016s-153.984 342.016-342.016 342.016-342.016-153.984-342.016-342.016 153.984-342.016 342.016-342.016zM512 873.984c235.989 0 425.984-189.995 425.984-425.984s-189.995-425.984-425.984-425.984-425.984 189.995-425.984 425.984 189.995 425.984 425.984 425.984z" />
<glyph unicode="&#xe909;" glyph-name="indeterminate_check_box" d="M726 406v84h-428v-84h428zM810 832c46 0 86-40 86-86v-596c0-46-40-86-86-86h-596c-46 0-86 40-86 86v596c0 46 40 86 86 86h596z" />
<glyph unicode="&#xe90a;" glyph-name="add" d="M832 512h-256v256h-128v-256h-256v-128h256v-256h128v256h256v128z" />
<glyph unicode="&#xe90b;" glyph-name="remove" d="M192 512h640v-128h-640v128z" />
<glyph unicode="&#xe90c;" glyph-name="settings" d="M925.619 381.236v137.185h-111.195c-8.492 36.612-22.241 68.912-40.626 97.988l79.405 77.707-97.383 97.564-77.912-78.554c-27.347 17.655-59.158 31.427-93.167 39.532l-2.085 112.535h-140.992v-112.116c-36.023-8.489-67.774-22.228-96.274-40.58l-77 79.359-97.163-97.384 78.765-79.338c-17.592-27.792-31.308-60.1-39.345-94.591l-111.946-2.123v-137.185h111.529c8.492-36.194 22.236-68.105 40.6-96.772l-79.378-77.161 97.383-97.274 77.741 78.666c27.299-17.611 59.058-31.337 93.012-39.393l2.074-111.031h140.993v110.613c36.098 8.496 67.917 22.244 96.487 40.608l77.041-79.354 97.2 97.384-78.72 78.19c17.593 27.432 31.305 59.34 39.344 93.437zM512.327 209.944c0 0 0 0-0.001 0-133.121 0-241.037 107.916-241.037 241.037s107.916 241.037 241.037 241.037c133.121 0 241.037-107.916 241.037-241.037-0.16-133.057-107.98-240.877-241.022-241.037zM615.633 450.998c0-57.052-46.25-103.302-103.302-103.302s-103.302 46.25-103.302 103.302c0 57.052 46.25 103.302 103.302 103.302s103.302-46.25 103.302-103.302z" />
<glyph unicode="&#xe90d;" glyph-name="edit" d="M922.004 720.234c6.519 6.842 10.529 16.124 10.529 26.343s-4.011 19.501-10.544 26.358l-93.341 95.755c-6.527 6.668-15.62 10.802-25.679 10.802s-19.151-4.134-25.673-10.795l-69.993-71.772 144.623-148.364zM128 768v-704h704v384h-64v-320h-576v576h320v64h-384zM495.936 282.688l314.112 322.688-144.64 148.352-314.112-322.688v-148.352h144.64z" />
<glyph unicode="&#xe90e;" glyph-name="composer_dividing_line" d="M0 464h1024v-96h-1024v96z" />
<glyph unicode="&#xe90f;" glyph-name="layout_standard" d="M992 928v-960h-960v960h960zM1024 960h-1024v-1024h1024v1024zM128 832h512v-768h-512v768zM704 832h192v-768h-192v768z" />
<glyph unicode="&#xe910;" glyph-name="layout_full" d="M992 928v-960h-960v960h960zM1024 960h-1024v-1024h1024v1024zM128 832h768v-768h-768v768z" />
<glyph unicode="&#xe911;" glyph-name="layout_hero" d="M992 928v-960h-960v960h960zM1024 960h-1024v-1024h1024v1024zM0 832h1024v-768h-1024v768z" />
<glyph unicode="&#xe912;" glyph-name="calendar" horiz-adv-x="951" d="M73.143 0h164.571v164.571h-164.571v-164.571zM274.286 0h182.857v164.571h-182.857v-164.571zM73.143 201.143h164.571v182.857h-164.571v-182.857zM274.286 201.143h182.857v182.857h-182.857v-182.857zM73.143 420.571h164.571v164.571h-164.571v-164.571zM493.714 0h182.857v164.571h-182.857v-164.571zM274.286 420.571h182.857v164.571h-182.857v-164.571zM713.143 0h164.571v164.571h-164.571v-164.571zM493.714 201.143h182.857v182.857h-182.857v-182.857zM292.571 694.857v164.571c0 9.714-8.571 18.286-18.286 18.286h-36.571c-9.714 0-18.286-8.571-18.286-18.286v-164.571c0-9.714 8.571-18.286 18.286-18.286h36.571c9.714 0 18.286 8.571 18.286 18.286zM713.143 201.143h164.571v182.857h-164.571v-182.857zM493.714 420.571h182.857v164.571h-182.857v-164.571zM713.143 420.571h164.571v164.571h-164.571v-164.571zM731.429 694.857v164.571c0 9.714-8.571 18.286-18.286 18.286h-36.571c-9.714 0-18.286-8.571-18.286-18.286v-164.571c0-9.714 8.571-18.286 18.286-18.286h36.571c9.714 0 18.286 8.571 18.286 18.286zM950.857 731.428v-731.429c0-40-33.143-73.143-73.143-73.143h-804.571c-40 0-73.143 33.143-73.143 73.143v731.429c0 40 33.143 73.143 73.143 73.143h73.143v54.857c0 50.286 41.143 91.429 91.429 91.429h36.571c50.286 0 91.429-41.143 91.429-91.429v-54.857h219.429v54.857c0 50.286 41.143 91.429 91.429 91.429h36.571c50.286 0 91.429-41.143 91.429-91.429v-54.857h73.143c40 0 73.143-33.143 73.143-73.143z" />
</font>
</defs>
</svg>
